<mxfile host="Electron" agent="Mozilla/5.0 (Windows NT 10.0; Win64; x64) AppleWebKit/537.36 (KHTML, like Gecko) draw.io/26.0.16 Chrome/132.0.6834.196 Electron/34.2.0 Safari/537.36" border="50" scale="3" compressed="false" locked="false" version="26.0.16">
  <diagram name="Blank" id="YmL12bMKpDGza6XwsDPr">
    <mxGraphModel dx="6148" dy="2394" grid="0" gridSize="10" guides="1" tooltips="1" connect="1" arrows="1" fold="1" page="0" pageScale="1" pageWidth="827" pageHeight="1169" background="none" math="1" shadow="0">
      <root>
        <mxCell id="X5NqExCQtvZxIxQ7pmgY-0" />
        <mxCell id="1" parent="X5NqExCQtvZxIxQ7pmgY-0" />
        <mxCell id="oYIHzgySC4vWeec2pDd3-6" style="edgeStyle=orthogonalEdgeStyle;rounded=0;orthogonalLoop=1;jettySize=auto;html=1;entryX=0.5;entryY=0;entryDx=0;entryDy=0;exitX=0.167;exitY=1.011;exitDx=0;exitDy=0;exitPerimeter=0;curved=1;" edge="1" parent="1" source="oYIHzgySC4vWeec2pDd3-1" target="oYIHzgySC4vWeec2pDd3-2">
          <mxGeometry relative="1" as="geometry" />
        </mxCell>
        <mxCell id="oYIHzgySC4vWeec2pDd3-7" style="edgeStyle=orthogonalEdgeStyle;rounded=0;orthogonalLoop=1;jettySize=auto;html=1;exitX=0.411;exitY=0.944;exitDx=0;exitDy=0;exitPerimeter=0;curved=1;" edge="1" parent="1" source="oYIHzgySC4vWeec2pDd3-1" target="oYIHzgySC4vWeec2pDd3-3">
          <mxGeometry relative="1" as="geometry">
            <Array as="points">
              <mxPoint x="463" y="274" />
              <mxPoint x="360" y="274" />
            </Array>
          </mxGeometry>
        </mxCell>
        <mxCell id="oYIHzgySC4vWeec2pDd3-8" style="edgeStyle=orthogonalEdgeStyle;rounded=0;orthogonalLoop=1;jettySize=auto;html=1;exitX=0.608;exitY=0.967;exitDx=0;exitDy=0;exitPerimeter=0;curved=1;" edge="1" parent="1" source="oYIHzgySC4vWeec2pDd3-1" target="oYIHzgySC4vWeec2pDd3-4">
          <mxGeometry relative="1" as="geometry">
            <Array as="points">
              <mxPoint x="503" y="273" />
              <mxPoint x="607" y="273" />
            </Array>
          </mxGeometry>
        </mxCell>
        <mxCell id="oYIHzgySC4vWeec2pDd3-9" style="edgeStyle=orthogonalEdgeStyle;rounded=0;orthogonalLoop=1;jettySize=auto;html=1;exitX=0.877;exitY=0.989;exitDx=0;exitDy=0;exitPerimeter=0;curved=1;" edge="1" parent="1" source="oYIHzgySC4vWeec2pDd3-1" target="oYIHzgySC4vWeec2pDd3-211">
          <mxGeometry relative="1" as="geometry">
            <mxPoint x="1514.6000000000004" y="376" as="targetPoint" />
          </mxGeometry>
        </mxCell>
        <mxCell id="oYIHzgySC4vWeec2pDd3-1" value="&lt;span style=&quot;font-family: &amp;quot;YS Text&amp;quot;, sans-serif; font-size: 18px; text-align: start; white-space-collapse: preserve;&quot;&gt;&lt;font style=&quot;color: rgb(0, 0, 0);&quot;&gt;Безопасность данных&lt;/font&gt;&lt;/span&gt;" style="rounded=1;whiteSpace=wrap;html=1;fillColor=#dae8fc;strokeColor=#6c8ebf;" vertex="1" parent="1">
          <mxGeometry x="380" y="28" width="203" height="60" as="geometry" />
        </mxCell>
        <mxCell id="oYIHzgySC4vWeec2pDd3-15" style="edgeStyle=orthogonalEdgeStyle;rounded=0;orthogonalLoop=1;jettySize=auto;html=1;curved=1;exitX=0.25;exitY=1;exitDx=0;exitDy=0;" edge="1" parent="1" source="oYIHzgySC4vWeec2pDd3-2" target="oYIHzgySC4vWeec2pDd3-10">
          <mxGeometry relative="1" as="geometry" />
        </mxCell>
        <mxCell id="oYIHzgySC4vWeec2pDd3-16" style="edgeStyle=orthogonalEdgeStyle;rounded=0;orthogonalLoop=1;jettySize=auto;html=1;curved=1;" edge="1" parent="1" source="oYIHzgySC4vWeec2pDd3-2" target="oYIHzgySC4vWeec2pDd3-13">
          <mxGeometry relative="1" as="geometry" />
        </mxCell>
        <mxCell id="oYIHzgySC4vWeec2pDd3-17" style="edgeStyle=orthogonalEdgeStyle;rounded=0;orthogonalLoop=1;jettySize=auto;html=1;curved=1;exitX=0.75;exitY=1;exitDx=0;exitDy=0;" edge="1" parent="1" source="oYIHzgySC4vWeec2pDd3-2" target="oYIHzgySC4vWeec2pDd3-14">
          <mxGeometry relative="1" as="geometry" />
        </mxCell>
        <mxCell id="oYIHzgySC4vWeec2pDd3-2" value="&lt;span style=&quot;font-family: &amp;quot;YS Text&amp;quot;, sans-serif; font-size: 18px; text-align: start; white-space-collapse: preserve;&quot;&gt;&lt;font style=&quot;color: rgb(0, 0, 0);&quot;&gt;Публичные данные&lt;/font&gt;&lt;/span&gt;" style="rounded=1;whiteSpace=wrap;html=1;fillColor=#d5e8d4;strokeColor=#82b366;" vertex="1" parent="1">
          <mxGeometry x="-514" y="376" width="203" height="60" as="geometry" />
        </mxCell>
        <mxCell id="oYIHzgySC4vWeec2pDd3-22" style="edgeStyle=orthogonalEdgeStyle;rounded=0;orthogonalLoop=1;jettySize=auto;html=1;curved=1;exitX=0.25;exitY=1;exitDx=0;exitDy=0;" edge="1" parent="1" source="oYIHzgySC4vWeec2pDd3-3" target="oYIHzgySC4vWeec2pDd3-19">
          <mxGeometry relative="1" as="geometry" />
        </mxCell>
        <mxCell id="oYIHzgySC4vWeec2pDd3-23" style="edgeStyle=orthogonalEdgeStyle;rounded=0;orthogonalLoop=1;jettySize=auto;html=1;curved=1;entryX=0.5;entryY=0;entryDx=0;entryDy=0;" edge="1" parent="1" source="oYIHzgySC4vWeec2pDd3-3" target="oYIHzgySC4vWeec2pDd3-98">
          <mxGeometry relative="1" as="geometry">
            <mxPoint x="-403" y="1109" as="targetPoint" />
          </mxGeometry>
        </mxCell>
        <mxCell id="oYIHzgySC4vWeec2pDd3-24" style="edgeStyle=orthogonalEdgeStyle;rounded=0;orthogonalLoop=1;jettySize=auto;html=1;curved=1;exitX=0.75;exitY=1;exitDx=0;exitDy=0;" edge="1" parent="1" source="oYIHzgySC4vWeec2pDd3-3" target="oYIHzgySC4vWeec2pDd3-21">
          <mxGeometry relative="1" as="geometry" />
        </mxCell>
        <mxCell id="oYIHzgySC4vWeec2pDd3-3" value="&lt;span style=&quot;font-family: &amp;quot;YS Text&amp;quot;, sans-serif; font-size: 18px; text-align: start; white-space-collapse: preserve;&quot;&gt;&lt;font style=&quot;color: rgb(0, 0, 0);&quot;&gt;Внутренние данные&lt;/font&gt;&lt;/span&gt;" style="rounded=1;whiteSpace=wrap;html=1;fillColor=#d5e8d4;strokeColor=#82b366;" vertex="1" parent="1">
          <mxGeometry x="-504" y="968" width="203" height="60" as="geometry" />
        </mxCell>
        <mxCell id="oYIHzgySC4vWeec2pDd3-127" style="edgeStyle=orthogonalEdgeStyle;rounded=0;orthogonalLoop=1;jettySize=auto;html=1;curved=1;exitX=0.189;exitY=1.001;exitDx=0;exitDy=0;exitPerimeter=0;" edge="1" parent="1" source="oYIHzgySC4vWeec2pDd3-4" target="oYIHzgySC4vWeec2pDd3-124">
          <mxGeometry relative="1" as="geometry" />
        </mxCell>
        <mxCell id="oYIHzgySC4vWeec2pDd3-128" style="edgeStyle=orthogonalEdgeStyle;rounded=0;orthogonalLoop=1;jettySize=auto;html=1;curved=1;exitX=0.365;exitY=1.001;exitDx=0;exitDy=0;exitPerimeter=0;" edge="1" parent="1" source="oYIHzgySC4vWeec2pDd3-4" target="oYIHzgySC4vWeec2pDd3-26">
          <mxGeometry relative="1" as="geometry" />
        </mxCell>
        <mxCell id="oYIHzgySC4vWeec2pDd3-129" style="edgeStyle=orthogonalEdgeStyle;rounded=0;orthogonalLoop=1;jettySize=auto;html=1;curved=1;" edge="1" parent="1" source="oYIHzgySC4vWeec2pDd3-4" target="oYIHzgySC4vWeec2pDd3-151">
          <mxGeometry relative="1" as="geometry">
            <mxPoint x="1670.9473684210534" y="1106.9999999999995" as="targetPoint" />
          </mxGeometry>
        </mxCell>
        <mxCell id="oYIHzgySC4vWeec2pDd3-130" style="edgeStyle=orthogonalEdgeStyle;rounded=0;orthogonalLoop=1;jettySize=auto;html=1;curved=1;exitX=0.669;exitY=1.001;exitDx=0;exitDy=0;exitPerimeter=0;" edge="1" parent="1" source="oYIHzgySC4vWeec2pDd3-4" target="oYIHzgySC4vWeec2pDd3-27">
          <mxGeometry relative="1" as="geometry" />
        </mxCell>
        <mxCell id="oYIHzgySC4vWeec2pDd3-131" style="edgeStyle=orthogonalEdgeStyle;rounded=0;orthogonalLoop=1;jettySize=auto;html=1;curved=1;exitX=0.846;exitY=1.015;exitDx=0;exitDy=0;exitPerimeter=0;" edge="1" parent="1" source="oYIHzgySC4vWeec2pDd3-4" target="oYIHzgySC4vWeec2pDd3-125">
          <mxGeometry relative="1" as="geometry" />
        </mxCell>
        <mxCell id="oYIHzgySC4vWeec2pDd3-4" value="&lt;span style=&quot;font-family: &amp;quot;YS Text&amp;quot;, sans-serif; font-size: 18px; text-align: start; white-space-collapse: preserve;&quot;&gt;&lt;font style=&quot;color: rgb(0, 0, 0);&quot;&gt;Конфиденциальные данные&lt;/font&gt;&lt;/span&gt;" style="rounded=1;whiteSpace=wrap;html=1;fillColor=#d5e8d4;strokeColor=#82b366;" vertex="1" parent="1">
          <mxGeometry x="1569" y="966" width="203" height="60" as="geometry" />
        </mxCell>
        <mxCell id="oYIHzgySC4vWeec2pDd3-32" style="edgeStyle=orthogonalEdgeStyle;rounded=0;orthogonalLoop=1;jettySize=auto;html=1;curved=1;" edge="1" parent="1" source="oYIHzgySC4vWeec2pDd3-10" target="oYIHzgySC4vWeec2pDd3-30">
          <mxGeometry relative="1" as="geometry">
            <Array as="points">
              <mxPoint x="-939" y="611" />
              <mxPoint x="-1017" y="611" />
            </Array>
          </mxGeometry>
        </mxCell>
        <mxCell id="oYIHzgySC4vWeec2pDd3-33" style="edgeStyle=orthogonalEdgeStyle;rounded=0;orthogonalLoop=1;jettySize=auto;html=1;curved=1;exitX=0.75;exitY=1;exitDx=0;exitDy=0;" edge="1" parent="1" source="oYIHzgySC4vWeec2pDd3-10" target="oYIHzgySC4vWeec2pDd3-31">
          <mxGeometry relative="1" as="geometry">
            <Array as="points">
              <mxPoint x="-820" y="611" />
              <mxPoint x="-769" y="611" />
            </Array>
          </mxGeometry>
        </mxCell>
        <mxCell id="oYIHzgySC4vWeec2pDd3-10" value="&lt;span style=&quot;font-family: Consolas, &amp;quot;Courier New&amp;quot;, monospace; white-space: pre;&quot;&gt;&lt;font style=&quot;font-size: 14px;&quot;&gt;Данные объектов&lt;/font&gt;&lt;/span&gt;&lt;div&gt;&lt;span style=&quot;font-family: Consolas, &amp;quot;Courier New&amp;quot;, monospace; white-space: pre;&quot;&gt;&lt;font style=&quot;font-size: 14px;&quot;&gt;недвижимости&lt;/font&gt;&lt;/span&gt;&lt;/div&gt;" style="rounded=1;whiteSpace=wrap;html=1;fillColor=#f5f5f5;strokeColor=#666666;fontColor=#333333;" vertex="1" parent="1">
          <mxGeometry x="-972" y="517" width="203" height="60" as="geometry" />
        </mxCell>
        <mxCell id="oYIHzgySC4vWeec2pDd3-44" style="edgeStyle=orthogonalEdgeStyle;rounded=0;orthogonalLoop=1;jettySize=auto;html=1;curved=1;exitX=0.25;exitY=1;exitDx=0;exitDy=0;" edge="1" parent="1" source="oYIHzgySC4vWeec2pDd3-13" target="oYIHzgySC4vWeec2pDd3-39">
          <mxGeometry relative="1" as="geometry" />
        </mxCell>
        <mxCell id="oYIHzgySC4vWeec2pDd3-45" style="edgeStyle=orthogonalEdgeStyle;rounded=0;orthogonalLoop=1;jettySize=auto;html=1;curved=1;exitX=0.75;exitY=1;exitDx=0;exitDy=0;" edge="1" parent="1" source="oYIHzgySC4vWeec2pDd3-13" target="oYIHzgySC4vWeec2pDd3-41">
          <mxGeometry relative="1" as="geometry" />
        </mxCell>
        <mxCell id="oYIHzgySC4vWeec2pDd3-13" value="&lt;span style=&quot;color: rgb(0, 0, 0); font-family: Consolas, &amp;quot;Courier New&amp;quot;, monospace; font-size: 14px; white-space: pre;&quot;&gt;Данные онлайн-туров&lt;/span&gt;" style="rounded=1;whiteSpace=wrap;html=1;fillColor=#f5f5f5;strokeColor=#666666;fontColor=#333333;" vertex="1" parent="1">
          <mxGeometry x="-514" y="517" width="203" height="60" as="geometry" />
        </mxCell>
        <mxCell id="oYIHzgySC4vWeec2pDd3-49" style="edgeStyle=orthogonalEdgeStyle;rounded=0;orthogonalLoop=1;jettySize=auto;html=1;entryX=0.5;entryY=0;entryDx=0;entryDy=0;" edge="1" parent="1" source="oYIHzgySC4vWeec2pDd3-14" target="oYIHzgySC4vWeec2pDd3-47">
          <mxGeometry relative="1" as="geometry" />
        </mxCell>
        <mxCell id="oYIHzgySC4vWeec2pDd3-14" value="&lt;span style=&quot;color: rgb(0, 0, 0); font-family: Consolas, &amp;quot;Courier New&amp;quot;, monospace; font-size: 14px; white-space: pre;&quot;&gt;Информация от управляющ&lt;/span&gt;&lt;span style=&quot;color: rgb(0, 0, 0); font-family: Consolas, &amp;quot;Courier New&amp;quot;, monospace; font-size: 14px; white-space: pre; background-color: transparent;&quot;&gt;их &lt;/span&gt;&lt;div&gt;&lt;span style=&quot;color: rgb(0, 0, 0); font-family: Consolas, &amp;quot;Courier New&amp;quot;, monospace; font-size: 14px; white-space: pre; background-color: transparent;&quot;&gt;компаний &lt;/span&gt;&lt;/div&gt;&lt;div&gt;&lt;span style=&quot;color: rgb(0, 0, 0); font-family: Consolas, &amp;quot;Courier New&amp;quot;, monospace; font-size: 14px; white-space: pre; background-color: transparent;&quot;&gt;(новости, ремонтные работы и т.д.)&lt;/span&gt;&lt;/div&gt;" style="rounded=1;whiteSpace=wrap;html=1;fillColor=#f5f5f5;strokeColor=#666666;fontColor=#333333;" vertex="1" parent="1">
          <mxGeometry x="-90" y="517" width="280" height="60" as="geometry" />
        </mxCell>
        <mxCell id="oYIHzgySC4vWeec2pDd3-82" style="edgeStyle=orthogonalEdgeStyle;rounded=0;orthogonalLoop=1;jettySize=auto;html=1;curved=1;exitX=0.25;exitY=1;exitDx=0;exitDy=0;" edge="1" parent="1" source="oYIHzgySC4vWeec2pDd3-19" target="oYIHzgySC4vWeec2pDd3-78">
          <mxGeometry relative="1" as="geometry" />
        </mxCell>
        <mxCell id="oYIHzgySC4vWeec2pDd3-83" style="edgeStyle=orthogonalEdgeStyle;rounded=0;orthogonalLoop=1;jettySize=auto;html=1;curved=1;exitX=0.393;exitY=0.964;exitDx=0;exitDy=0;exitPerimeter=0;" edge="1" parent="1" source="oYIHzgySC4vWeec2pDd3-19" target="oYIHzgySC4vWeec2pDd3-79">
          <mxGeometry relative="1" as="geometry" />
        </mxCell>
        <mxCell id="oYIHzgySC4vWeec2pDd3-84" style="edgeStyle=orthogonalEdgeStyle;rounded=0;orthogonalLoop=1;jettySize=auto;html=1;curved=1;exitX=0.6;exitY=1.002;exitDx=0;exitDy=0;exitPerimeter=0;" edge="1" parent="1" source="oYIHzgySC4vWeec2pDd3-19" target="oYIHzgySC4vWeec2pDd3-80">
          <mxGeometry relative="1" as="geometry" />
        </mxCell>
        <mxCell id="oYIHzgySC4vWeec2pDd3-85" style="edgeStyle=orthogonalEdgeStyle;rounded=0;orthogonalLoop=1;jettySize=auto;html=1;curved=1;exitX=0.75;exitY=1;exitDx=0;exitDy=0;" edge="1" parent="1" source="oYIHzgySC4vWeec2pDd3-19" target="oYIHzgySC4vWeec2pDd3-81">
          <mxGeometry relative="1" as="geometry" />
        </mxCell>
        <mxCell id="oYIHzgySC4vWeec2pDd3-19" value="&lt;span style=&quot;color: rgb(0, 0, 0); font-family: Consolas, &amp;quot;Courier New&amp;quot;, monospace; font-size: 14px; white-space: pre;&quot;&gt;Внутренние данные отчетов &lt;/span&gt;&lt;div&gt;&lt;span style=&quot;color: rgb(0, 0, 0); font-family: Consolas, &amp;quot;Courier New&amp;quot;, monospace; font-size: 14px; white-space: pre;&quot;&gt;и аналитики для DWH&lt;/span&gt;&lt;/div&gt;" style="rounded=1;whiteSpace=wrap;html=1;fillColor=#f5f5f5;strokeColor=#666666;fontColor=#333333;" vertex="1" parent="1">
          <mxGeometry x="-1377" y="1109" width="219" height="60" as="geometry" />
        </mxCell>
        <mxCell id="oYIHzgySC4vWeec2pDd3-119" style="edgeStyle=orthogonalEdgeStyle;rounded=0;orthogonalLoop=1;jettySize=auto;html=1;curved=1;exitX=0.25;exitY=1;exitDx=0;exitDy=0;" edge="1" parent="1" source="oYIHzgySC4vWeec2pDd3-21" target="oYIHzgySC4vWeec2pDd3-114">
          <mxGeometry relative="1" as="geometry" />
        </mxCell>
        <mxCell id="oYIHzgySC4vWeec2pDd3-120" style="edgeStyle=orthogonalEdgeStyle;rounded=0;orthogonalLoop=1;jettySize=auto;html=1;curved=1;exitX=0.75;exitY=1;exitDx=0;exitDy=0;" edge="1" parent="1" source="oYIHzgySC4vWeec2pDd3-21" target="oYIHzgySC4vWeec2pDd3-116">
          <mxGeometry relative="1" as="geometry" />
        </mxCell>
        <mxCell id="oYIHzgySC4vWeec2pDd3-21" value="&lt;span style=&quot;color: rgb(0, 0, 0); font-family: Consolas, &amp;quot;Courier New&amp;quot;, monospace; font-size: 14px; white-space: pre;&quot;&gt;Данные по бизнес-процессам CRM системы &lt;/span&gt;&lt;div&gt;&lt;span style=&quot;color: rgb(0, 0, 0); font-family: Consolas, &amp;quot;Courier New&amp;quot;, monospace; font-size: 14px; white-space: pre;&quot;&gt;(история заказов клиентов, планы по развитию продуктов,&lt;/span&gt;&lt;/div&gt;&lt;div&gt;&lt;span style=&quot;color: rgb(0, 0, 0); font-family: Consolas, &amp;quot;Courier New&amp;quot;, monospace; font-size: 14px; white-space: pre;&quot;&gt; логика бизнес-процессов)&lt;/span&gt;&lt;/div&gt;" style="rounded=1;whiteSpace=wrap;html=1;fillColor=#f5f5f5;strokeColor=#666666;fontColor=#333333;" vertex="1" parent="1">
          <mxGeometry x="28" y="1109" width="431" height="60" as="geometry" />
        </mxCell>
        <mxCell id="oYIHzgySC4vWeec2pDd3-147" style="edgeStyle=orthogonalEdgeStyle;rounded=0;orthogonalLoop=1;jettySize=auto;html=1;curved=1;exitX=0.25;exitY=1;exitDx=0;exitDy=0;" edge="1" parent="1" source="oYIHzgySC4vWeec2pDd3-26" target="oYIHzgySC4vWeec2pDd3-142">
          <mxGeometry relative="1" as="geometry" />
        </mxCell>
        <mxCell id="oYIHzgySC4vWeec2pDd3-148" style="edgeStyle=orthogonalEdgeStyle;rounded=0;orthogonalLoop=1;jettySize=auto;html=1;curved=1;exitX=0.75;exitY=1;exitDx=0;exitDy=0;" edge="1" parent="1" source="oYIHzgySC4vWeec2pDd3-26" target="oYIHzgySC4vWeec2pDd3-144">
          <mxGeometry relative="1" as="geometry" />
        </mxCell>
        <mxCell id="oYIHzgySC4vWeec2pDd3-26" value="&lt;span style=&quot;color: rgb(0, 0, 0); font-family: Consolas, &amp;quot;Courier New&amp;quot;, monospace; font-size: 14px; white-space: pre;&quot;&gt;Данные с датчиков умного &lt;/span&gt;&lt;div&gt;&lt;span style=&quot;color: rgb(0, 0, 0); font-family: Consolas, &amp;quot;Courier New&amp;quot;, monospace; font-size: 14px; white-space: pre;&quot;&gt;дома (например, запись &lt;/span&gt;&lt;/div&gt;&lt;div&gt;&lt;span style=&quot;color: rgb(0, 0, 0); font-family: Consolas, &amp;quot;Courier New&amp;quot;, monospace; font-size: 14px; white-space: pre;&quot;&gt;с видеокамер)&lt;/span&gt;&lt;/div&gt;" style="rounded=1;whiteSpace=wrap;html=1;fillColor=#f5f5f5;strokeColor=#666666;fontColor=#333333;" vertex="1" parent="1">
          <mxGeometry x="1096" y="1109" width="204" height="60" as="geometry" />
        </mxCell>
        <mxCell id="oYIHzgySC4vWeec2pDd3-27" value="&lt;span style=&quot;color: rgb(0, 0, 0); font-family: Consolas, &amp;quot;Courier New&amp;quot;, monospace; font-size: 14px; white-space: pre;&quot;&gt;Данные собственников &lt;/span&gt;&lt;div&gt;&lt;span style=&quot;color: rgb(0, 0, 0); font-family: Consolas, &amp;quot;Courier New&amp;quot;, monospace; font-size: 14px; white-space: pre;&quot;&gt;от управляющих компаний&lt;/span&gt;&lt;/div&gt;" style="rounded=1;whiteSpace=wrap;html=1;fillColor=#f5f5f5;strokeColor=#666666;fontColor=#333333;" vertex="1" parent="1">
          <mxGeometry x="2172" y="1107" width="204" height="60" as="geometry" />
        </mxCell>
        <mxCell id="oYIHzgySC4vWeec2pDd3-35" style="edgeStyle=orthogonalEdgeStyle;rounded=0;orthogonalLoop=1;jettySize=auto;html=1;" edge="1" parent="1" source="oYIHzgySC4vWeec2pDd3-30" target="oYIHzgySC4vWeec2pDd3-34">
          <mxGeometry relative="1" as="geometry" />
        </mxCell>
        <mxCell id="oYIHzgySC4vWeec2pDd3-30" value="&lt;font face=&quot;Consolas, Courier New, monospace&quot;&gt;&lt;span style=&quot;font-size: 14px; white-space: pre;&quot;&gt;Потеря данных&lt;/span&gt;&lt;/font&gt;&lt;div&gt;&lt;font face=&quot;Consolas, Courier New, monospace&quot;&gt;&lt;span style=&quot;font-size: 14px; white-space: pre;&quot;&gt;(значительный)&lt;/span&gt;&lt;/font&gt;&lt;/div&gt;" style="rounded=1;whiteSpace=wrap;html=1;fillColor=#f8cecc;strokeColor=#b85450;" vertex="1" parent="1">
          <mxGeometry x="-1118" y="644" width="203" height="60" as="geometry" />
        </mxCell>
        <mxCell id="oYIHzgySC4vWeec2pDd3-37" style="edgeStyle=orthogonalEdgeStyle;rounded=0;orthogonalLoop=1;jettySize=auto;html=1;" edge="1" parent="1" source="oYIHzgySC4vWeec2pDd3-31" target="oYIHzgySC4vWeec2pDd3-36">
          <mxGeometry relative="1" as="geometry" />
        </mxCell>
        <mxCell id="oYIHzgySC4vWeec2pDd3-31" value="&lt;font face=&quot;Consolas, Courier New, monospace&quot;&gt;&lt;span style=&quot;font-size: 14px; white-space: pre;&quot;&gt;Искажение данных &lt;/span&gt;&lt;/font&gt;&lt;div&gt;&lt;font face=&quot;Consolas, Courier New, monospace&quot;&gt;&lt;span style=&quot;font-size: 14px; white-space: pre;&quot;&gt;(значительный)&lt;/span&gt;&lt;/font&gt;&lt;/div&gt;" style="rounded=1;whiteSpace=wrap;html=1;fillColor=#f8cecc;strokeColor=#b85450;" vertex="1" parent="1">
          <mxGeometry x="-871" y="644" width="203" height="60" as="geometry" />
        </mxCell>
        <mxCell id="oYIHzgySC4vWeec2pDd3-34" value="&lt;font face=&quot;Consolas, Courier New, monospace&quot;&gt;&lt;span style=&quot;font-size: 14px; white-space: pre;&quot;&gt;М&lt;/span&gt;&lt;/font&gt;&lt;span style=&quot;font-family: Consolas, &amp;quot;Courier New&amp;quot;, monospace; font-size: 14px; white-space: pre;&quot;&gt;ожет привести &lt;/span&gt;&lt;div&gt;&lt;span style=&quot;font-family: Consolas, &amp;quot;Courier New&amp;quot;, monospace; font-size: 14px; white-space: pre;&quot;&gt;к убыткам компании из-за &lt;/span&gt;&lt;/div&gt;&lt;div&gt;&lt;span style=&quot;font-family: Consolas, &amp;quot;Courier New&amp;quot;, monospace; font-size: 14px; white-space: pre;&quot;&gt;невозможности проводить &lt;/span&gt;&lt;/div&gt;&lt;div&gt;&lt;span style=&quot;font-family: Consolas, &amp;quot;Courier New&amp;quot;, monospace; font-size: 14px; white-space: pre;&quot;&gt;сделки &lt;/span&gt;&lt;/div&gt;" style="rounded=1;html=1;fillColor=#fff2cc;strokeColor=#d6b656;whiteSpace=wrap;" vertex="1" parent="1">
          <mxGeometry x="-1118" y="765" width="203" height="112" as="geometry" />
        </mxCell>
        <mxCell id="oYIHzgySC4vWeec2pDd3-36" value="&lt;span style=&quot;font-family: Consolas, &amp;quot;Courier New&amp;quot;, monospace; font-size: 14px; white-space: pre;&quot;&gt;Неверная информация &lt;/span&gt;&lt;div&gt;&lt;span style=&quot;font-family: Consolas, &amp;quot;Courier New&amp;quot;, monospace; font-size: 14px; white-space: pre;&quot;&gt;может привести &lt;/span&gt;&lt;div&gt;&lt;span style=&quot;font-family: Consolas, &amp;quot;Courier New&amp;quot;, monospace; font-size: 14px; white-space: pre;&quot;&gt;к потере доверия клиентов&lt;/span&gt;&lt;/div&gt;&lt;/div&gt;" style="rounded=1;html=1;fillColor=#fff2cc;strokeColor=#d6b656;whiteSpace=wrap;" vertex="1" parent="1">
          <mxGeometry x="-871" y="765" width="203" height="112" as="geometry" />
        </mxCell>
        <mxCell id="oYIHzgySC4vWeec2pDd3-38" style="edgeStyle=orthogonalEdgeStyle;rounded=0;orthogonalLoop=1;jettySize=auto;html=1;" edge="1" parent="1" source="oYIHzgySC4vWeec2pDd3-39" target="oYIHzgySC4vWeec2pDd3-42">
          <mxGeometry relative="1" as="geometry" />
        </mxCell>
        <mxCell id="oYIHzgySC4vWeec2pDd3-39" value="&lt;font face=&quot;Consolas, Courier New, monospace&quot;&gt;&lt;span style=&quot;font-size: 14px; white-space: pre;&quot;&gt;Потеря данных&lt;/span&gt;&lt;/font&gt;&lt;div&gt;&lt;font face=&quot;Consolas, Courier New, monospace&quot;&gt;&lt;span style=&quot;font-size: 14px; white-space: pre;&quot;&gt;(значительный)&lt;/span&gt;&lt;/font&gt;&lt;/div&gt;" style="rounded=1;whiteSpace=wrap;html=1;fillColor=#f8cecc;strokeColor=#b85450;" vertex="1" parent="1">
          <mxGeometry x="-637.5" y="647" width="203" height="60" as="geometry" />
        </mxCell>
        <mxCell id="oYIHzgySC4vWeec2pDd3-40" style="edgeStyle=orthogonalEdgeStyle;rounded=0;orthogonalLoop=1;jettySize=auto;html=1;" edge="1" parent="1" source="oYIHzgySC4vWeec2pDd3-41" target="oYIHzgySC4vWeec2pDd3-43">
          <mxGeometry relative="1" as="geometry" />
        </mxCell>
        <mxCell id="oYIHzgySC4vWeec2pDd3-41" value="&lt;font face=&quot;Consolas, Courier New, monospace&quot;&gt;&lt;span style=&quot;font-size: 14px; white-space: pre;&quot;&gt;Искажение данных &lt;/span&gt;&lt;/font&gt;&lt;div&gt;&lt;font face=&quot;Consolas, Courier New, monospace&quot;&gt;&lt;span style=&quot;font-size: 14px; white-space: pre;&quot;&gt;(значительный)&lt;/span&gt;&lt;/font&gt;&lt;/div&gt;" style="rounded=1;whiteSpace=wrap;html=1;fillColor=#f8cecc;strokeColor=#b85450;" vertex="1" parent="1">
          <mxGeometry x="-390.5" y="647" width="203" height="60" as="geometry" />
        </mxCell>
        <mxCell id="oYIHzgySC4vWeec2pDd3-42" value="&lt;font face=&quot;Consolas, Courier New, monospace&quot;&gt;&lt;span style=&quot;font-size: 14px; white-space: pre;&quot;&gt;М&lt;/span&gt;&lt;/font&gt;&lt;span style=&quot;font-family: Consolas, &amp;quot;Courier New&amp;quot;, monospace; font-size: 14px; white-space: pre;&quot;&gt;ожет привести &lt;/span&gt;&lt;div&gt;&lt;span style=&quot;font-family: Consolas, &amp;quot;Courier New&amp;quot;, monospace; font-size: 14px; white-space: pre;&quot;&gt;к убыткам компании из-за &lt;/span&gt;&lt;/div&gt;&lt;div&gt;&lt;span style=&quot;font-family: Consolas, &amp;quot;Courier New&amp;quot;, monospace; font-size: 14px; white-space: pre;&quot;&gt;отказа покупателей &lt;/span&gt;&lt;/div&gt;&lt;div&gt;&lt;span style=&quot;font-family: Consolas, &amp;quot;Courier New&amp;quot;, monospace; font-size: 14px; white-space: pre;&quot;&gt;от сделки&lt;/span&gt;&lt;/div&gt;" style="rounded=1;html=1;fillColor=#fff2cc;strokeColor=#d6b656;whiteSpace=wrap;" vertex="1" parent="1">
          <mxGeometry x="-637.5" y="768" width="203" height="112" as="geometry" />
        </mxCell>
        <mxCell id="oYIHzgySC4vWeec2pDd3-43" value="&lt;span style=&quot;font-family: Consolas, &amp;quot;Courier New&amp;quot;, monospace; font-size: 14px; white-space: pre;&quot;&gt;Может привести &lt;/span&gt;&lt;div&gt;&lt;span style=&quot;font-family: Consolas, &amp;quot;Courier New&amp;quot;, monospace; font-size: 14px; white-space: pre;&quot;&gt;к потере доверия клиентов&lt;/span&gt;&lt;/div&gt;" style="rounded=1;html=1;fillColor=#fff2cc;strokeColor=#d6b656;whiteSpace=wrap;" vertex="1" parent="1">
          <mxGeometry x="-390.5" y="768" width="203" height="112" as="geometry" />
        </mxCell>
        <mxCell id="oYIHzgySC4vWeec2pDd3-46" style="edgeStyle=orthogonalEdgeStyle;rounded=0;orthogonalLoop=1;jettySize=auto;html=1;" edge="1" parent="1" source="oYIHzgySC4vWeec2pDd3-47" target="oYIHzgySC4vWeec2pDd3-48">
          <mxGeometry relative="1" as="geometry" />
        </mxCell>
        <mxCell id="oYIHzgySC4vWeec2pDd3-47" value="&lt;font face=&quot;Consolas, Courier New, monospace&quot;&gt;&lt;span style=&quot;font-size: 14px; white-space: pre;&quot;&gt;Искажение данных &lt;/span&gt;&lt;/font&gt;&lt;div&gt;&lt;font face=&quot;Consolas, Courier New, monospace&quot;&gt;&lt;span style=&quot;font-size: 14px; white-space: pre;&quot;&gt;(незначительный)&lt;/span&gt;&lt;/font&gt;&lt;/div&gt;" style="rounded=1;whiteSpace=wrap;html=1;fillColor=#f8cecc;strokeColor=#b85450;" vertex="1" parent="1">
          <mxGeometry x="-51.5" y="644" width="203" height="60" as="geometry" />
        </mxCell>
        <mxCell id="oYIHzgySC4vWeec2pDd3-48" value="&lt;span style=&quot;font-family: Consolas, &amp;quot;Courier New&amp;quot;, monospace; font-size: 14px; white-space: pre;&quot;&gt;Данные легко восстановить,&lt;/span&gt;&lt;div&gt;&lt;span style=&quot;font-family: Consolas, &amp;quot;Courier New&amp;quot;, monospace; font-size: 14px; white-space: pre;&quot;&gt;но може привести &lt;/span&gt;&lt;div&gt;&lt;span style=&quot;font-family: Consolas, &amp;quot;Courier New&amp;quot;, monospace; font-size: 14px; white-space: pre;&quot;&gt;к потере доверия клиентов&lt;/span&gt;&lt;/div&gt;&lt;/div&gt;" style="rounded=1;html=1;fillColor=#fff2cc;strokeColor=#d6b656;whiteSpace=wrap;" vertex="1" parent="1">
          <mxGeometry x="-50.5" y="765" width="203" height="112" as="geometry" />
        </mxCell>
        <mxCell id="oYIHzgySC4vWeec2pDd3-87" style="edgeStyle=orthogonalEdgeStyle;rounded=0;orthogonalLoop=1;jettySize=auto;html=1;" edge="1" parent="1" source="oYIHzgySC4vWeec2pDd3-78" target="oYIHzgySC4vWeec2pDd3-86">
          <mxGeometry relative="1" as="geometry" />
        </mxCell>
        <mxCell id="oYIHzgySC4vWeec2pDd3-78" value="&lt;font face=&quot;Consolas, Courier New, monospace&quot;&gt;&lt;span style=&quot;font-size: 14px; white-space: pre;&quot;&gt;Утечка данных&lt;/span&gt;&lt;/font&gt;&lt;div&gt;&lt;font face=&quot;Consolas, Courier New, monospace&quot;&gt;&lt;span style=&quot;font-size: 14px; white-space: pre;&quot;&gt;(значительный)&lt;/span&gt;&lt;/font&gt;&lt;/div&gt;" style="rounded=1;whiteSpace=wrap;html=1;fillColor=#f8cecc;strokeColor=#b85450;" vertex="1" parent="1">
          <mxGeometry x="-1735" y="1256" width="203" height="60" as="geometry" />
        </mxCell>
        <mxCell id="oYIHzgySC4vWeec2pDd3-89" style="edgeStyle=orthogonalEdgeStyle;rounded=0;orthogonalLoop=1;jettySize=auto;html=1;" edge="1" parent="1" source="oYIHzgySC4vWeec2pDd3-79" target="oYIHzgySC4vWeec2pDd3-88">
          <mxGeometry relative="1" as="geometry" />
        </mxCell>
        <mxCell id="oYIHzgySC4vWeec2pDd3-79" value="&lt;font face=&quot;Consolas, Courier New, monospace&quot;&gt;&lt;span style=&quot;font-size: 14px; white-space: pre;&quot;&gt;Потеря данных&lt;/span&gt;&lt;/font&gt;&lt;div&gt;&lt;font face=&quot;Consolas, Courier New, monospace&quot;&gt;&lt;span style=&quot;font-size: 14px; white-space: pre;&quot;&gt;(значительный)&lt;/span&gt;&lt;/font&gt;&lt;/div&gt;" style="rounded=1;whiteSpace=wrap;html=1;fillColor=#f8cecc;strokeColor=#b85450;" vertex="1" parent="1">
          <mxGeometry x="-1498" y="1256" width="203" height="60" as="geometry" />
        </mxCell>
        <mxCell id="oYIHzgySC4vWeec2pDd3-91" style="edgeStyle=orthogonalEdgeStyle;rounded=0;orthogonalLoop=1;jettySize=auto;html=1;" edge="1" parent="1" source="oYIHzgySC4vWeec2pDd3-80" target="oYIHzgySC4vWeec2pDd3-90">
          <mxGeometry relative="1" as="geometry" />
        </mxCell>
        <mxCell id="oYIHzgySC4vWeec2pDd3-80" value="&lt;font face=&quot;Consolas, Courier New, monospace&quot;&gt;&lt;span style=&quot;font-size: 14px; white-space: pre;&quot;&gt;Некачественные данные&lt;/span&gt;&lt;/font&gt;&lt;div&gt;&lt;font face=&quot;Consolas, Courier New, monospace&quot;&gt;&lt;span style=&quot;font-size: 14px; white-space: pre;&quot;&gt;(значительный)&lt;/span&gt;&lt;/font&gt;&lt;/div&gt;" style="rounded=1;whiteSpace=wrap;html=1;fillColor=#f8cecc;strokeColor=#b85450;" vertex="1" parent="1">
          <mxGeometry x="-1261" y="1256" width="203" height="60" as="geometry" />
        </mxCell>
        <mxCell id="oYIHzgySC4vWeec2pDd3-93" style="edgeStyle=orthogonalEdgeStyle;rounded=0;orthogonalLoop=1;jettySize=auto;html=1;" edge="1" parent="1" source="oYIHzgySC4vWeec2pDd3-81" target="oYIHzgySC4vWeec2pDd3-92">
          <mxGeometry relative="1" as="geometry" />
        </mxCell>
        <mxCell id="oYIHzgySC4vWeec2pDd3-81" value="&lt;font face=&quot;Consolas, Courier New, monospace&quot;&gt;&lt;span style=&quot;font-size: 14px; white-space: pre;&quot;&gt;Обесценивание данных&lt;/span&gt;&lt;/font&gt;&lt;div&gt;&lt;font face=&quot;Consolas, Courier New, monospace&quot;&gt;&lt;span style=&quot;font-size: 14px; white-space: pre;&quot;&gt;(незначительный)&lt;/span&gt;&lt;/font&gt;&lt;/div&gt;" style="rounded=1;whiteSpace=wrap;html=1;fillColor=#f8cecc;strokeColor=#b85450;" vertex="1" parent="1">
          <mxGeometry x="-1018" y="1256" width="203" height="60" as="geometry" />
        </mxCell>
        <mxCell id="oYIHzgySC4vWeec2pDd3-86" value="&lt;font face=&quot;Consolas, Courier New, monospace&quot;&gt;&lt;span style=&quot;font-size: 14px; white-space: pre;&quot;&gt;М&lt;/span&gt;&lt;/font&gt;&lt;span style=&quot;font-family: Consolas, &amp;quot;Courier New&amp;quot;, monospace; font-size: 14px; white-space: pre;&quot;&gt;ожет помочь злоумышленникам&lt;/span&gt;&lt;div&gt;&lt;span style=&quot;font-family: Consolas, &amp;quot;Courier New&amp;quot;, monospace; font-size: 14px; white-space: pre;&quot;&gt; завладеть конфиденциальными&lt;/span&gt;&lt;/div&gt;&lt;div&gt;&lt;span style=&quot;font-family: Consolas, &amp;quot;Courier New&amp;quot;, monospace; font-size: 14px; white-space: pre;&quot;&gt; данными или данные могут&lt;/span&gt;&lt;/div&gt;&lt;div&gt;&lt;span style=&quot;font-family: Consolas, &amp;quot;Courier New&amp;quot;, monospace; font-size: 14px; white-space: pre;&quot;&gt;попасть к&lt;/span&gt;&lt;span style=&quot;font-family: Consolas, &amp;quot;Courier New&amp;quot;, monospace; font-size: 14px; white-space: pre; background-color: transparent; color: light-dark(rgb(0, 0, 0), rgb(255, 255, 255));&quot;&gt; конкурентам&lt;/span&gt;&lt;/div&gt;" style="rounded=1;html=1;fillColor=#fff2cc;strokeColor=#d6b656;whiteSpace=wrap;" vertex="1" parent="1">
          <mxGeometry x="-1744" y="1361" width="221" height="112" as="geometry" />
        </mxCell>
        <mxCell id="oYIHzgySC4vWeec2pDd3-88" value="&lt;font face=&quot;Consolas, Courier New, monospace&quot;&gt;&lt;span style=&quot;font-size: 14px; white-space: pre;&quot;&gt;М&lt;/span&gt;&lt;/font&gt;&lt;span style=&quot;font-family: Consolas, &amp;quot;Courier New&amp;quot;, monospace; font-size: 14px; white-space: pre;&quot;&gt;ожет привести &lt;/span&gt;&lt;span style=&quot;font-family: Consolas, &amp;quot;Courier New&amp;quot;, monospace; font-size: 14px; white-space: pre; background-color: transparent; color: light-dark(rgb(0, 0, 0), rgb(255, 255, 255));&quot;&gt;к&lt;/span&gt;&lt;div&gt;&lt;span style=&quot;font-family: Consolas, &amp;quot;Courier New&amp;quot;, monospace; font-size: 14px; white-space: pre; background-color: transparent; color: light-dark(rgb(0, 0, 0), rgb(255, 255, 255));&quot;&gt;сбоям в работе сервисов&lt;/span&gt;&lt;/div&gt;" style="rounded=1;html=1;fillColor=#fff2cc;strokeColor=#d6b656;whiteSpace=wrap;" vertex="1" parent="1">
          <mxGeometry x="-1498" y="1361" width="203" height="112" as="geometry" />
        </mxCell>
        <mxCell id="oYIHzgySC4vWeec2pDd3-90" value="&lt;span style=&quot;font-family: Consolas, &amp;quot;Courier New&amp;quot;, monospace; font-size: 14px; white-space: pre;&quot;&gt;Могут привести к ошибкам &lt;/span&gt;&lt;div&gt;&lt;span style=&quot;font-family: Consolas, &amp;quot;Courier New&amp;quot;, monospace; font-size: 14px; white-space: pre;&quot;&gt;в аналитике &lt;/span&gt;&lt;/div&gt;&lt;div&gt;&lt;span style=&quot;font-family: Consolas, &amp;quot;Courier New&amp;quot;, monospace; font-size: 14px; white-space: pre;&quot;&gt;и принятии решений&lt;/span&gt;&lt;/div&gt;" style="rounded=1;html=1;fillColor=#fff2cc;strokeColor=#d6b656;whiteSpace=wrap;" vertex="1" parent="1">
          <mxGeometry x="-1261" y="1363" width="203" height="112" as="geometry" />
        </mxCell>
        <mxCell id="oYIHzgySC4vWeec2pDd3-92" value="&lt;span style=&quot;font-family: Consolas, &amp;quot;Courier New&amp;quot;, monospace; font-size: 14px; white-space: pre;&quot;&gt;Могут привести к ошибкам &lt;/span&gt;&lt;div&gt;&lt;span style=&quot;font-family: Consolas, &amp;quot;Courier New&amp;quot;, monospace; font-size: 14px; white-space: pre;&quot;&gt;в аналитике &lt;/span&gt;&lt;/div&gt;&lt;div&gt;&lt;span style=&quot;font-family: Consolas, &amp;quot;Courier New&amp;quot;, monospace; font-size: 14px; white-space: pre;&quot;&gt;и принятии решений&lt;/span&gt;&lt;/div&gt;" style="rounded=1;html=1;fillColor=#fff2cc;strokeColor=#d6b656;whiteSpace=wrap;" vertex="1" parent="1">
          <mxGeometry x="-1018" y="1366" width="203" height="106" as="geometry" />
        </mxCell>
        <mxCell id="oYIHzgySC4vWeec2pDd3-94" style="edgeStyle=orthogonalEdgeStyle;rounded=0;orthogonalLoop=1;jettySize=auto;html=1;curved=1;exitX=0.25;exitY=1;exitDx=0;exitDy=0;" edge="1" parent="1" source="oYIHzgySC4vWeec2pDd3-98" target="oYIHzgySC4vWeec2pDd3-100">
          <mxGeometry relative="1" as="geometry" />
        </mxCell>
        <mxCell id="oYIHzgySC4vWeec2pDd3-95" style="edgeStyle=orthogonalEdgeStyle;rounded=0;orthogonalLoop=1;jettySize=auto;html=1;curved=1;exitX=0.393;exitY=0.964;exitDx=0;exitDy=0;exitPerimeter=0;" edge="1" parent="1" source="oYIHzgySC4vWeec2pDd3-98" target="oYIHzgySC4vWeec2pDd3-102">
          <mxGeometry relative="1" as="geometry" />
        </mxCell>
        <mxCell id="oYIHzgySC4vWeec2pDd3-96" style="edgeStyle=orthogonalEdgeStyle;rounded=0;orthogonalLoop=1;jettySize=auto;html=1;curved=1;exitX=0.6;exitY=1.002;exitDx=0;exitDy=0;exitPerimeter=0;" edge="1" parent="1" source="oYIHzgySC4vWeec2pDd3-98" target="oYIHzgySC4vWeec2pDd3-104">
          <mxGeometry relative="1" as="geometry" />
        </mxCell>
        <mxCell id="oYIHzgySC4vWeec2pDd3-98" value="&lt;font face=&quot;Consolas, Courier New, monospace&quot; color=&quot;#000000&quot;&gt;&lt;span style=&quot;font-size: 14px; white-space: pre;&quot;&gt;Логи и метрики&lt;/span&gt;&lt;/font&gt;" style="rounded=1;whiteSpace=wrap;html=1;fillColor=#f5f5f5;strokeColor=#666666;fontColor=#333333;" vertex="1" parent="1">
          <mxGeometry x="-511.5" y="1109" width="219" height="60" as="geometry" />
        </mxCell>
        <mxCell id="oYIHzgySC4vWeec2pDd3-99" style="edgeStyle=orthogonalEdgeStyle;rounded=0;orthogonalLoop=1;jettySize=auto;html=1;" edge="1" parent="1" source="oYIHzgySC4vWeec2pDd3-100" target="oYIHzgySC4vWeec2pDd3-107">
          <mxGeometry relative="1" as="geometry" />
        </mxCell>
        <mxCell id="oYIHzgySC4vWeec2pDd3-100" value="&lt;font face=&quot;Consolas, Courier New, monospace&quot;&gt;&lt;span style=&quot;font-size: 14px; white-space: pre;&quot;&gt;Утечка данных&lt;/span&gt;&lt;/font&gt;&lt;div&gt;&lt;font face=&quot;Consolas, Courier New, monospace&quot;&gt;&lt;span style=&quot;font-size: 14px; white-space: pre;&quot;&gt;(значительный)&lt;/span&gt;&lt;/font&gt;&lt;/div&gt;" style="rounded=1;whiteSpace=wrap;html=1;fillColor=#f8cecc;strokeColor=#b85450;" vertex="1" parent="1">
          <mxGeometry x="-763" y="1256" width="203" height="60" as="geometry" />
        </mxCell>
        <mxCell id="oYIHzgySC4vWeec2pDd3-101" style="edgeStyle=orthogonalEdgeStyle;rounded=0;orthogonalLoop=1;jettySize=auto;html=1;" edge="1" parent="1" source="oYIHzgySC4vWeec2pDd3-102" target="oYIHzgySC4vWeec2pDd3-108">
          <mxGeometry relative="1" as="geometry" />
        </mxCell>
        <mxCell id="oYIHzgySC4vWeec2pDd3-102" value="&lt;font face=&quot;Consolas, Courier New, monospace&quot;&gt;&lt;span style=&quot;font-size: 14px; white-space: pre;&quot;&gt;Потеря данных&lt;/span&gt;&lt;/font&gt;&lt;div&gt;&lt;font face=&quot;Consolas, Courier New, monospace&quot;&gt;&lt;span style=&quot;font-size: 14px; white-space: pre;&quot;&gt;(незначительный)&lt;/span&gt;&lt;/font&gt;&lt;/div&gt;" style="rounded=1;whiteSpace=wrap;html=1;fillColor=#f8cecc;strokeColor=#b85450;" vertex="1" parent="1">
          <mxGeometry x="-526" y="1256" width="203" height="60" as="geometry" />
        </mxCell>
        <mxCell id="oYIHzgySC4vWeec2pDd3-103" style="edgeStyle=orthogonalEdgeStyle;rounded=0;orthogonalLoop=1;jettySize=auto;html=1;" edge="1" parent="1" source="oYIHzgySC4vWeec2pDd3-104" target="oYIHzgySC4vWeec2pDd3-109">
          <mxGeometry relative="1" as="geometry" />
        </mxCell>
        <mxCell id="oYIHzgySC4vWeec2pDd3-104" value="&lt;font face=&quot;Consolas, Courier New, monospace&quot;&gt;&lt;span style=&quot;font-size: 14px; white-space: pre;&quot;&gt;Некачественные данные&lt;/span&gt;&lt;/font&gt;&lt;div&gt;&lt;font face=&quot;Consolas, Courier New, monospace&quot;&gt;&lt;span style=&quot;font-size: 14px; white-space: pre;&quot;&gt;(значительный)&lt;/span&gt;&lt;/font&gt;&lt;/div&gt;" style="rounded=1;whiteSpace=wrap;html=1;fillColor=#f8cecc;strokeColor=#b85450;" vertex="1" parent="1">
          <mxGeometry x="-289" y="1256" width="203" height="60" as="geometry" />
        </mxCell>
        <mxCell id="oYIHzgySC4vWeec2pDd3-107" value="&lt;font face=&quot;Consolas, Courier New, monospace&quot;&gt;&lt;span style=&quot;font-size: 14px; white-space: pre;&quot;&gt;М&lt;/span&gt;&lt;/font&gt;&lt;span style=&quot;font-family: Consolas, &amp;quot;Courier New&amp;quot;, monospace; font-size: 14px; white-space: pre;&quot;&gt;ожет помочь злоумышленникам&lt;/span&gt;&lt;div&gt;&lt;span style=&quot;font-family: Consolas, &amp;quot;Courier New&amp;quot;, monospace; font-size: 14px; white-space: pre;&quot;&gt; завладеть конфиденциальными&lt;/span&gt;&lt;/div&gt;&lt;div&gt;&lt;span style=&quot;font-family: Consolas, &amp;quot;Courier New&amp;quot;, monospace; font-size: 14px; white-space: pre;&quot;&gt; данными&lt;/span&gt;&lt;/div&gt;" style="rounded=1;html=1;fillColor=#fff2cc;strokeColor=#d6b656;whiteSpace=wrap;" vertex="1" parent="1">
          <mxGeometry x="-772" y="1361" width="221" height="112" as="geometry" />
        </mxCell>
        <mxCell id="oYIHzgySC4vWeec2pDd3-108" value="&lt;font face=&quot;Consolas, Courier New, monospace&quot;&gt;&lt;span style=&quot;font-size: 14px; white-space: pre;&quot;&gt;М&lt;/span&gt;&lt;/font&gt;&lt;span style=&quot;font-family: Consolas, &amp;quot;Courier New&amp;quot;, monospace; font-size: 14px; white-space: pre;&quot;&gt;ожет привести &lt;/span&gt;&lt;span style=&quot;font-family: Consolas, &amp;quot;Courier New&amp;quot;, monospace; font-size: 14px; white-space: pre; background-color: transparent; color: light-dark(rgb(0, 0, 0), rgb(255, 255, 255));&quot;&gt;к&lt;/span&gt;&lt;div&gt;&lt;font face=&quot;Consolas, Courier New, monospace&quot;&gt;&lt;span style=&quot;font-size: 14px; white-space: pre;&quot;&gt;сложностям при опредении &lt;/span&gt;&lt;/font&gt;&lt;/div&gt;&lt;div&gt;&lt;font face=&quot;Consolas, Courier New, monospace&quot;&gt;&lt;span style=&quot;font-size: 14px; white-space: pre;&quot;&gt;проблем в системе&lt;/span&gt;&lt;/font&gt;&lt;/div&gt;" style="rounded=1;html=1;fillColor=#fff2cc;strokeColor=#d6b656;whiteSpace=wrap;" vertex="1" parent="1">
          <mxGeometry x="-526" y="1361" width="203" height="112" as="geometry" />
        </mxCell>
        <mxCell id="oYIHzgySC4vWeec2pDd3-109" value="&lt;span style=&quot;font-family: Consolas, &amp;quot;Courier New&amp;quot;, monospace; font-size: 14px; white-space: pre;&quot;&gt;Могут привести к ошибкам &lt;/span&gt;&lt;div&gt;&lt;span style=&quot;font-family: Consolas, &amp;quot;Courier New&amp;quot;, monospace; font-size: 14px; white-space: pre; background-color: transparent; color: light-dark(rgb(0, 0, 0), rgb(255, 255, 255));&quot;&gt;действиям и напрасной  &lt;/span&gt;&lt;span style=&quot;background-color: transparent; color: light-dark(rgb(0, 0, 0), rgb(255, 255, 255)); font-family: Consolas, &amp;quot;Courier New&amp;quot;, monospace; font-size: 14px; white-space: pre;&quot;&gt;трате &lt;/span&gt;&lt;/div&gt;&lt;div&gt;&lt;span style=&quot;background-color: transparent; color: light-dark(rgb(0, 0, 0), rgb(255, 255, 255)); font-family: Consolas, &amp;quot;Courier New&amp;quot;, monospace; font-size: 14px; white-space: pre;&quot;&gt;временени разработчиков&lt;/span&gt;&lt;/div&gt;" style="rounded=1;html=1;fillColor=#fff2cc;strokeColor=#d6b656;whiteSpace=wrap;" vertex="1" parent="1">
          <mxGeometry x="-301.5" y="1363" width="228" height="112" as="geometry" />
        </mxCell>
        <mxCell id="oYIHzgySC4vWeec2pDd3-113" style="edgeStyle=orthogonalEdgeStyle;rounded=0;orthogonalLoop=1;jettySize=auto;html=1;" edge="1" parent="1" source="oYIHzgySC4vWeec2pDd3-114" target="oYIHzgySC4vWeec2pDd3-117">
          <mxGeometry relative="1" as="geometry" />
        </mxCell>
        <mxCell id="oYIHzgySC4vWeec2pDd3-114" value="&lt;font face=&quot;Consolas, Courier New, monospace&quot;&gt;&lt;span style=&quot;font-size: 14px; white-space: pre;&quot;&gt;Утечка данных&lt;/span&gt;&lt;/font&gt;&lt;div&gt;&lt;font face=&quot;Consolas, Courier New, monospace&quot;&gt;&lt;span style=&quot;font-size: 14px; white-space: pre;&quot;&gt;(значительный)&lt;/span&gt;&lt;/font&gt;&lt;/div&gt;" style="rounded=1;whiteSpace=wrap;html=1;fillColor=#f8cecc;strokeColor=#b85450;" vertex="1" parent="1">
          <mxGeometry x="19" y="1258" width="203" height="60" as="geometry" />
        </mxCell>
        <mxCell id="oYIHzgySC4vWeec2pDd3-115" style="edgeStyle=orthogonalEdgeStyle;rounded=0;orthogonalLoop=1;jettySize=auto;html=1;" edge="1" parent="1" source="oYIHzgySC4vWeec2pDd3-116" target="oYIHzgySC4vWeec2pDd3-118">
          <mxGeometry relative="1" as="geometry" />
        </mxCell>
        <mxCell id="oYIHzgySC4vWeec2pDd3-116" value="&lt;font face=&quot;Consolas, Courier New, monospace&quot;&gt;&lt;span style=&quot;font-size: 14px; white-space: pre;&quot;&gt;Потеря данных&lt;/span&gt;&lt;/font&gt;&lt;div&gt;&lt;font face=&quot;Consolas, Courier New, monospace&quot;&gt;&lt;span style=&quot;font-size: 14px; white-space: pre;&quot;&gt;(незначительный)&lt;/span&gt;&lt;/font&gt;&lt;/div&gt;" style="rounded=1;whiteSpace=wrap;html=1;fillColor=#f8cecc;strokeColor=#b85450;" vertex="1" parent="1">
          <mxGeometry x="264" y="1258" width="203" height="60" as="geometry" />
        </mxCell>
        <mxCell id="oYIHzgySC4vWeec2pDd3-117" value="&lt;span style=&quot;font-family: Consolas, &amp;quot;Courier New&amp;quot;, monospace; font-size: 14px; white-space: pre;&quot;&gt;Утечка данных к конкурентам&lt;/span&gt;&lt;div&gt;&lt;span style=&quot;font-family: Consolas, &amp;quot;Courier New&amp;quot;, monospace; font-size: 14px; white-space: pre;&quot;&gt; может привести &lt;/span&gt;&lt;/div&gt;&lt;div&gt;&lt;span style=&quot;font-family: Consolas, &amp;quot;Courier New&amp;quot;, monospace; font-size: 14px; white-space: pre;&quot;&gt;к финансовым потерям&lt;/span&gt;&lt;/div&gt;" style="rounded=1;html=1;fillColor=#fff2cc;strokeColor=#d6b656;whiteSpace=wrap;" vertex="1" parent="1">
          <mxGeometry x="10" y="1363" width="221" height="112" as="geometry" />
        </mxCell>
        <mxCell id="oYIHzgySC4vWeec2pDd3-118" value="&lt;font face=&quot;Consolas, Courier New, monospace&quot;&gt;&lt;span style=&quot;font-size: 14px; white-space: pre;&quot;&gt;М&lt;/span&gt;&lt;/font&gt;&lt;span style=&quot;font-family: Consolas, &amp;quot;Courier New&amp;quot;, monospace; font-size: 14px; white-space: pre;&quot;&gt;ожет привести &lt;/span&gt;&lt;span style=&quot;font-family: Consolas, &amp;quot;Courier New&amp;quot;, monospace; font-size: 14px; white-space: pre; background-color: transparent; color: light-dark(rgb(0, 0, 0), rgb(255, 255, 255));&quot;&gt;к&lt;/span&gt;&lt;div&gt;&lt;font face=&quot;Consolas, Courier New, monospace&quot;&gt;&lt;span style=&quot;font-size: 14px; white-space: pre;&quot;&gt;сложностям при опредении &lt;/span&gt;&lt;/font&gt;&lt;/div&gt;&lt;div&gt;&lt;font face=&quot;Consolas, Courier New, monospace&quot;&gt;&lt;span style=&quot;font-size: 14px; white-space: pre;&quot;&gt;проблем в системе&lt;/span&gt;&lt;/font&gt;&lt;/div&gt;" style="rounded=1;html=1;fillColor=#fff2cc;strokeColor=#d6b656;whiteSpace=wrap;" vertex="1" parent="1">
          <mxGeometry x="264" y="1363" width="203" height="112" as="geometry" />
        </mxCell>
        <mxCell id="oYIHzgySC4vWeec2pDd3-138" style="edgeStyle=orthogonalEdgeStyle;rounded=0;orthogonalLoop=1;jettySize=auto;html=1;curved=1;exitX=0.25;exitY=1;exitDx=0;exitDy=0;" edge="1" parent="1" source="oYIHzgySC4vWeec2pDd3-124" target="oYIHzgySC4vWeec2pDd3-133">
          <mxGeometry relative="1" as="geometry" />
        </mxCell>
        <mxCell id="oYIHzgySC4vWeec2pDd3-139" style="edgeStyle=orthogonalEdgeStyle;rounded=0;orthogonalLoop=1;jettySize=auto;html=1;curved=1;exitX=0.75;exitY=1;exitDx=0;exitDy=0;" edge="1" parent="1" source="oYIHzgySC4vWeec2pDd3-124" target="oYIHzgySC4vWeec2pDd3-135">
          <mxGeometry relative="1" as="geometry" />
        </mxCell>
        <mxCell id="oYIHzgySC4vWeec2pDd3-124" value="&lt;span style=&quot;color: rgb(0, 0, 0); font-family: Consolas, &amp;quot;Courier New&amp;quot;, monospace; font-size: 14px; white-space: pre;&quot;&gt;Персональные данные &lt;/span&gt;&lt;div&gt;&lt;span style=&quot;color: rgb(0, 0, 0); font-family: Consolas, &amp;quot;Courier New&amp;quot;, monospace; font-size: 14px; white-space: pre;&quot;&gt;клиентов и собственников&lt;/span&gt;&lt;/div&gt;" style="rounded=1;whiteSpace=wrap;html=1;fillColor=#f5f5f5;strokeColor=#666666;fontColor=#333333;" vertex="1" parent="1">
          <mxGeometry x="619" y="1109" width="204" height="60" as="geometry" />
        </mxCell>
        <mxCell id="oYIHzgySC4vWeec2pDd3-176" style="edgeStyle=orthogonalEdgeStyle;rounded=0;orthogonalLoop=1;jettySize=auto;html=1;curved=1;exitX=0.25;exitY=1;exitDx=0;exitDy=0;" edge="1" parent="1" source="oYIHzgySC4vWeec2pDd3-125" target="oYIHzgySC4vWeec2pDd3-171">
          <mxGeometry relative="1" as="geometry" />
        </mxCell>
        <mxCell id="oYIHzgySC4vWeec2pDd3-177" style="edgeStyle=orthogonalEdgeStyle;rounded=0;orthogonalLoop=1;jettySize=auto;html=1;curved=1;exitX=0.75;exitY=1;exitDx=0;exitDy=0;" edge="1" parent="1" source="oYIHzgySC4vWeec2pDd3-125" target="oYIHzgySC4vWeec2pDd3-173">
          <mxGeometry relative="1" as="geometry" />
        </mxCell>
        <mxCell id="oYIHzgySC4vWeec2pDd3-125" value="&lt;span style=&quot;color: rgb(0, 0, 0); font-family: Consolas, &amp;quot;Courier New&amp;quot;, monospace; font-size: 14px; white-space: pre;&quot;&gt;Платежные данные &lt;/span&gt;&lt;div&gt;&lt;span style=&quot;color: rgb(0, 0, 0); font-family: Consolas, &amp;quot;Courier New&amp;quot;, monospace; font-size: 14px; white-space: pre;&quot;&gt;по сделкам &lt;/span&gt;&lt;/div&gt;&lt;div&gt;&lt;span style=&quot;color: rgb(0, 0, 0); font-family: Consolas, &amp;quot;Courier New&amp;quot;, monospace; font-size: 14px; white-space: pre;&quot;&gt;и оплатам услуг ЖКХ&lt;/span&gt;&lt;/div&gt;" style="rounded=1;whiteSpace=wrap;html=1;fillColor=#f5f5f5;strokeColor=#666666;fontColor=#333333;" vertex="1" parent="1">
          <mxGeometry x="2779" y="1107" width="204" height="60" as="geometry" />
        </mxCell>
        <mxCell id="oYIHzgySC4vWeec2pDd3-132" style="edgeStyle=orthogonalEdgeStyle;rounded=0;orthogonalLoop=1;jettySize=auto;html=1;" edge="1" parent="1" source="oYIHzgySC4vWeec2pDd3-133" target="oYIHzgySC4vWeec2pDd3-136">
          <mxGeometry relative="1" as="geometry" />
        </mxCell>
        <mxCell id="oYIHzgySC4vWeec2pDd3-133" value="&lt;font face=&quot;Consolas, Courier New, monospace&quot;&gt;&lt;span style=&quot;font-size: 14px; white-space: pre;&quot;&gt;Утечка данных&lt;/span&gt;&lt;/font&gt;&lt;div&gt;&lt;font face=&quot;Consolas, Courier New, monospace&quot;&gt;&lt;span style=&quot;font-size: 14px; white-space: pre;&quot;&gt;(к&lt;/span&gt;&lt;/font&gt;&lt;span style=&quot;font-family: Consolas, &amp;quot;Courier New&amp;quot;, monospace; font-size: 14px; white-space: pre;&quot;&gt;ритический&lt;/span&gt;&lt;font face=&quot;Consolas, Courier New, monospace&quot;&gt;&lt;span style=&quot;font-size: 14px; white-space: pre;&quot;&gt;)&lt;/span&gt;&lt;/font&gt;&lt;/div&gt;" style="rounded=1;whiteSpace=wrap;html=1;fillColor=#f8cecc;strokeColor=#b85450;" vertex="1" parent="1">
          <mxGeometry x="501.5" y="1258" width="203" height="60" as="geometry" />
        </mxCell>
        <mxCell id="oYIHzgySC4vWeec2pDd3-134" style="edgeStyle=orthogonalEdgeStyle;rounded=0;orthogonalLoop=1;jettySize=auto;html=1;" edge="1" parent="1" source="oYIHzgySC4vWeec2pDd3-135" target="oYIHzgySC4vWeec2pDd3-137">
          <mxGeometry relative="1" as="geometry" />
        </mxCell>
        <mxCell id="oYIHzgySC4vWeec2pDd3-135" value="&lt;font face=&quot;Consolas, Courier New, monospace&quot;&gt;&lt;span style=&quot;font-size: 14px; white-space: pre;&quot;&gt;Потеря данных&lt;/span&gt;&lt;/font&gt;&lt;div&gt;&lt;font face=&quot;Consolas, Courier New, monospace&quot;&gt;&lt;span style=&quot;font-size: 14px; white-space: pre;&quot;&gt;(&lt;/span&gt;&lt;/font&gt;&lt;font face=&quot;Consolas, Courier New, monospace&quot;&gt;&lt;span style=&quot;font-size: 14px; white-space: pre;&quot;&gt;к&lt;/span&gt;&lt;/font&gt;&lt;span style=&quot;font-family: Consolas, &amp;quot;Courier New&amp;quot;, monospace; font-size: 14px; white-space: pre;&quot;&gt;ритический&lt;/span&gt;&lt;font face=&quot;Consolas, Courier New, monospace&quot;&gt;&lt;span style=&quot;font-size: 14px; white-space: pre;&quot;&gt;)&lt;/span&gt;&lt;/font&gt;&lt;/div&gt;" style="rounded=1;whiteSpace=wrap;html=1;fillColor=#f8cecc;strokeColor=#b85450;" vertex="1" parent="1">
          <mxGeometry x="746.5" y="1258" width="203" height="60" as="geometry" />
        </mxCell>
        <mxCell id="oYIHzgySC4vWeec2pDd3-136" value="&lt;span style=&quot;font-family: Consolas, &amp;quot;Courier New&amp;quot;, monospace; font-size: 14px; white-space: pre;&quot;&gt;Может привести &lt;/span&gt;&lt;div&gt;&lt;span style=&quot;font-family: Consolas, &amp;quot;Courier New&amp;quot;, monospace; font-size: 14px; white-space: pre;&quot;&gt;к &lt;/span&gt;&lt;span style=&quot;font-family: Consolas, &amp;quot;Courier New&amp;quot;, monospace; font-size: 14px; white-space: pre; background-color: transparent; color: light-dark(rgb(0, 0, 0), rgb(255, 255, 255));&quot;&gt;штрафам и потери лояльности&lt;/span&gt;&lt;/div&gt;&lt;div&gt;&lt;span style=&quot;font-family: Consolas, &amp;quot;Courier New&amp;quot;, monospace; font-size: 14px; white-space: pre;&quot;&gt;клиентов&lt;/span&gt;&lt;/div&gt;" style="rounded=1;html=1;fillColor=#fff2cc;strokeColor=#d6b656;whiteSpace=wrap;" vertex="1" parent="1">
          <mxGeometry x="492.5" y="1363" width="221" height="112" as="geometry" />
        </mxCell>
        <mxCell id="oYIHzgySC4vWeec2pDd3-137" value="&lt;span style=&quot;font-family: Consolas, &amp;quot;Courier New&amp;quot;, monospace; font-size: 14px; white-space: pre;&quot;&gt;Может привести к убыткам&lt;/span&gt;&lt;div&gt;&lt;span style=&quot;font-family: Consolas, &amp;quot;Courier New&amp;quot;, monospace; font-size: 14px; white-space: pre;&quot;&gt;компании и потери &lt;/span&gt;&lt;/div&gt;&lt;div&gt;&lt;span style=&quot;font-family: Consolas, &amp;quot;Courier New&amp;quot;, monospace; font-size: 14px; white-space: pre;&quot;&gt;лояльности клиентов&lt;/span&gt;&lt;/div&gt;" style="rounded=1;html=1;fillColor=#fff2cc;strokeColor=#d6b656;whiteSpace=wrap;" vertex="1" parent="1">
          <mxGeometry x="746.5" y="1363" width="203" height="112" as="geometry" />
        </mxCell>
        <mxCell id="oYIHzgySC4vWeec2pDd3-141" style="edgeStyle=orthogonalEdgeStyle;rounded=0;orthogonalLoop=1;jettySize=auto;html=1;" edge="1" parent="1" source="oYIHzgySC4vWeec2pDd3-142" target="oYIHzgySC4vWeec2pDd3-145">
          <mxGeometry relative="1" as="geometry" />
        </mxCell>
        <mxCell id="oYIHzgySC4vWeec2pDd3-142" value="&lt;font face=&quot;Consolas, Courier New, monospace&quot;&gt;&lt;span style=&quot;font-size: 14px; white-space: pre;&quot;&gt;Утечка данных&lt;/span&gt;&lt;/font&gt;&lt;div&gt;&lt;font face=&quot;Consolas, Courier New, monospace&quot;&gt;&lt;span style=&quot;font-size: 14px; white-space: pre;&quot;&gt;(значительный)&lt;/span&gt;&lt;/font&gt;&lt;/div&gt;" style="rounded=1;whiteSpace=wrap;html=1;fillColor=#f8cecc;strokeColor=#b85450;" vertex="1" parent="1">
          <mxGeometry x="975" y="1258" width="203" height="60" as="geometry" />
        </mxCell>
        <mxCell id="oYIHzgySC4vWeec2pDd3-143" style="edgeStyle=orthogonalEdgeStyle;rounded=0;orthogonalLoop=1;jettySize=auto;html=1;" edge="1" parent="1" source="oYIHzgySC4vWeec2pDd3-144" target="oYIHzgySC4vWeec2pDd3-146">
          <mxGeometry relative="1" as="geometry" />
        </mxCell>
        <mxCell id="oYIHzgySC4vWeec2pDd3-144" value="&lt;font face=&quot;Consolas, Courier New, monospace&quot;&gt;&lt;span style=&quot;font-size: 14px; white-space: pre;&quot;&gt;Потеря данных&lt;/span&gt;&lt;/font&gt;&lt;div&gt;&lt;font face=&quot;Consolas, Courier New, monospace&quot;&gt;&lt;span style=&quot;font-size: 14px; white-space: pre;&quot;&gt;(незначительный)&lt;/span&gt;&lt;/font&gt;&lt;/div&gt;" style="rounded=1;whiteSpace=wrap;html=1;fillColor=#f8cecc;strokeColor=#b85450;" vertex="1" parent="1">
          <mxGeometry x="1220" y="1258" width="203" height="60" as="geometry" />
        </mxCell>
        <mxCell id="oYIHzgySC4vWeec2pDd3-145" value="&lt;span style=&quot;font-family: Consolas, &amp;quot;Courier New&amp;quot;, monospace; font-size: 14px; white-space: pre;&quot;&gt;Может привести &lt;/span&gt;&lt;div&gt;&lt;span style=&quot;font-family: Consolas, &amp;quot;Courier New&amp;quot;, monospace; font-size: 14px; white-space: pre;&quot;&gt;к судебным искам, &lt;/span&gt;&lt;/div&gt;&lt;div&gt;&lt;span style=&quot;font-family: Consolas, &amp;quot;Courier New&amp;quot;, monospace; font-size: 14px; white-space: pre;&quot;&gt;штрафам и потери лояльности&lt;/span&gt;&lt;/div&gt;&lt;div&gt;&lt;span style=&quot;font-family: Consolas, &amp;quot;Courier New&amp;quot;, monospace; font-size: 14px; white-space: pre;&quot;&gt;клиентов&lt;/span&gt;&lt;/div&gt;" style="rounded=1;html=1;fillColor=#fff2cc;strokeColor=#d6b656;whiteSpace=wrap;" vertex="1" parent="1">
          <mxGeometry x="966" y="1363" width="221" height="112" as="geometry" />
        </mxCell>
        <mxCell id="oYIHzgySC4vWeec2pDd3-146" value="&lt;span style=&quot;font-family: Consolas, &amp;quot;Courier New&amp;quot;, monospace; font-size: 14px; white-space: pre;&quot;&gt;Может привести к убыткам&lt;/span&gt;&lt;div&gt;&lt;span style=&quot;font-family: Consolas, &amp;quot;Courier New&amp;quot;, monospace; font-size: 14px; white-space: pre;&quot;&gt;компании и потери &lt;/span&gt;&lt;/div&gt;&lt;div&gt;&lt;span style=&quot;font-family: Consolas, &amp;quot;Courier New&amp;quot;, monospace; font-size: 14px; white-space: pre;&quot;&gt;лояльности клиентов&lt;/span&gt;&lt;/div&gt;" style="rounded=1;html=1;fillColor=#fff2cc;strokeColor=#d6b656;whiteSpace=wrap;" vertex="1" parent="1">
          <mxGeometry x="1220" y="1363" width="203" height="112" as="geometry" />
        </mxCell>
        <mxCell id="oYIHzgySC4vWeec2pDd3-149" style="edgeStyle=orthogonalEdgeStyle;rounded=0;orthogonalLoop=1;jettySize=auto;html=1;curved=1;exitX=0.25;exitY=1;exitDx=0;exitDy=0;" edge="1" parent="1" source="oYIHzgySC4vWeec2pDd3-151" target="oYIHzgySC4vWeec2pDd3-153">
          <mxGeometry relative="1" as="geometry" />
        </mxCell>
        <mxCell id="oYIHzgySC4vWeec2pDd3-150" style="edgeStyle=orthogonalEdgeStyle;rounded=0;orthogonalLoop=1;jettySize=auto;html=1;curved=1;exitX=0.75;exitY=1;exitDx=0;exitDy=0;" edge="1" parent="1" source="oYIHzgySC4vWeec2pDd3-151" target="oYIHzgySC4vWeec2pDd3-155">
          <mxGeometry relative="1" as="geometry" />
        </mxCell>
        <mxCell id="oYIHzgySC4vWeec2pDd3-151" value="&lt;span style=&quot;color: rgb(0, 0, 0); font-family: Consolas, &amp;quot;Courier New&amp;quot;, monospace; font-size: 14px; white-space: pre;&quot;&gt;Данные о сделках&lt;/span&gt;" style="rounded=1;whiteSpace=wrap;html=1;fillColor=#f5f5f5;strokeColor=#666666;fontColor=#333333;" vertex="1" parent="1">
          <mxGeometry x="1568" y="1107" width="204" height="60" as="geometry" />
        </mxCell>
        <mxCell id="oYIHzgySC4vWeec2pDd3-152" style="edgeStyle=orthogonalEdgeStyle;rounded=0;orthogonalLoop=1;jettySize=auto;html=1;" edge="1" parent="1" source="oYIHzgySC4vWeec2pDd3-153" target="oYIHzgySC4vWeec2pDd3-156">
          <mxGeometry relative="1" as="geometry" />
        </mxCell>
        <mxCell id="oYIHzgySC4vWeec2pDd3-153" value="&lt;font face=&quot;Consolas, Courier New, monospace&quot;&gt;&lt;span style=&quot;font-size: 14px; white-space: pre;&quot;&gt;Утечка данных&lt;/span&gt;&lt;/font&gt;&lt;div&gt;&lt;font face=&quot;Consolas, Courier New, monospace&quot;&gt;&lt;span style=&quot;font-size: 14px; white-space: pre;&quot;&gt;(критический)&lt;/span&gt;&lt;/font&gt;&lt;/div&gt;" style="rounded=1;whiteSpace=wrap;html=1;fillColor=#f8cecc;strokeColor=#b85450;" vertex="1" parent="1">
          <mxGeometry x="1447" y="1256" width="203" height="60" as="geometry" />
        </mxCell>
        <mxCell id="oYIHzgySC4vWeec2pDd3-154" style="edgeStyle=orthogonalEdgeStyle;rounded=0;orthogonalLoop=1;jettySize=auto;html=1;" edge="1" parent="1" source="oYIHzgySC4vWeec2pDd3-155" target="oYIHzgySC4vWeec2pDd3-157">
          <mxGeometry relative="1" as="geometry" />
        </mxCell>
        <mxCell id="oYIHzgySC4vWeec2pDd3-155" value="&lt;font face=&quot;Consolas, Courier New, monospace&quot;&gt;&lt;span style=&quot;font-size: 14px; white-space: pre;&quot;&gt;Потеря данных&lt;/span&gt;&lt;/font&gt;&lt;div&gt;&lt;font face=&quot;Consolas, Courier New, monospace&quot;&gt;&lt;span style=&quot;font-size: 14px; white-space: pre;&quot;&gt;(незначительный)&lt;/span&gt;&lt;/font&gt;&lt;/div&gt;" style="rounded=1;whiteSpace=wrap;html=1;fillColor=#f8cecc;strokeColor=#b85450;" vertex="1" parent="1">
          <mxGeometry x="1692" y="1256" width="203" height="60" as="geometry" />
        </mxCell>
        <mxCell id="oYIHzgySC4vWeec2pDd3-156" value="&lt;span style=&quot;font-family: Consolas, &amp;quot;Courier New&amp;quot;, monospace; font-size: 14px; white-space: pre;&quot;&gt;Может привести &lt;/span&gt;&lt;div&gt;&lt;span style=&quot;font-family: Consolas, &amp;quot;Courier New&amp;quot;, monospace; font-size: 14px; white-space: pre;&quot;&gt;к судебным искам, &lt;/span&gt;&lt;/div&gt;&lt;div&gt;&lt;span style=&quot;font-family: Consolas, &amp;quot;Courier New&amp;quot;, monospace; font-size: 14px; white-space: pre;&quot;&gt;штрафам и потери лояльности&lt;/span&gt;&lt;/div&gt;&lt;div&gt;&lt;span style=&quot;font-family: Consolas, &amp;quot;Courier New&amp;quot;, monospace; font-size: 14px; white-space: pre;&quot;&gt;клиентов&lt;/span&gt;&lt;/div&gt;" style="rounded=1;html=1;fillColor=#fff2cc;strokeColor=#d6b656;whiteSpace=wrap;" vertex="1" parent="1">
          <mxGeometry x="1438" y="1361" width="221" height="112" as="geometry" />
        </mxCell>
        <mxCell id="oYIHzgySC4vWeec2pDd3-157" value="&lt;span style=&quot;font-family: Consolas, &amp;quot;Courier New&amp;quot;, monospace; font-size: 14px; white-space: pre;&quot;&gt;Может привести к &lt;/span&gt;&lt;span style=&quot;font-family: Consolas, &amp;quot;Courier New&amp;quot;, monospace; font-size: 14px; white-space: pre; background-color: transparent; color: light-dark(rgb(0, 0, 0), rgb(255, 255, 255));&quot;&gt;потери &lt;/span&gt;&lt;div&gt;&lt;span style=&quot;font-family: Consolas, &amp;quot;Courier New&amp;quot;, monospace; font-size: 14px; white-space: pre;&quot;&gt;лояльности клиентов&lt;/span&gt;&lt;/div&gt;" style="rounded=1;html=1;fillColor=#fff2cc;strokeColor=#d6b656;whiteSpace=wrap;" vertex="1" parent="1">
          <mxGeometry x="1692" y="1361" width="203" height="112" as="geometry" />
        </mxCell>
        <mxCell id="oYIHzgySC4vWeec2pDd3-158" style="edgeStyle=orthogonalEdgeStyle;rounded=0;orthogonalLoop=1;jettySize=auto;html=1;curved=1;exitX=0.25;exitY=1;exitDx=0;exitDy=0;" edge="1" parent="1" target="oYIHzgySC4vWeec2pDd3-162" source="oYIHzgySC4vWeec2pDd3-27">
          <mxGeometry relative="1" as="geometry">
            <mxPoint x="2241" y="1171" as="sourcePoint" />
          </mxGeometry>
        </mxCell>
        <mxCell id="oYIHzgySC4vWeec2pDd3-159" style="edgeStyle=orthogonalEdgeStyle;rounded=0;orthogonalLoop=1;jettySize=auto;html=1;curved=1;" edge="1" parent="1" target="oYIHzgySC4vWeec2pDd3-164" source="oYIHzgySC4vWeec2pDd3-27">
          <mxGeometry relative="1" as="geometry">
            <mxPoint x="2273" y="1169" as="sourcePoint" />
          </mxGeometry>
        </mxCell>
        <mxCell id="oYIHzgySC4vWeec2pDd3-160" style="edgeStyle=orthogonalEdgeStyle;rounded=0;orthogonalLoop=1;jettySize=auto;html=1;curved=1;exitX=0.75;exitY=1;exitDx=0;exitDy=0;" edge="1" parent="1" target="oYIHzgySC4vWeec2pDd3-166" source="oYIHzgySC4vWeec2pDd3-27">
          <mxGeometry relative="1" as="geometry">
            <mxPoint x="2318" y="1171" as="sourcePoint" />
          </mxGeometry>
        </mxCell>
        <mxCell id="oYIHzgySC4vWeec2pDd3-161" style="edgeStyle=orthogonalEdgeStyle;rounded=0;orthogonalLoop=1;jettySize=auto;html=1;" edge="1" parent="1" source="oYIHzgySC4vWeec2pDd3-162" target="oYIHzgySC4vWeec2pDd3-167">
          <mxGeometry relative="1" as="geometry" />
        </mxCell>
        <mxCell id="oYIHzgySC4vWeec2pDd3-162" value="&lt;font face=&quot;Consolas, Courier New, monospace&quot;&gt;&lt;span style=&quot;font-size: 14px; white-space: pre;&quot;&gt;Утечка данных&lt;/span&gt;&lt;/font&gt;&lt;div&gt;&lt;font face=&quot;Consolas, Courier New, monospace&quot;&gt;&lt;span style=&quot;font-size: 14px; white-space: pre;&quot;&gt;(значительный)&lt;/span&gt;&lt;/font&gt;&lt;/div&gt;" style="rounded=1;whiteSpace=wrap;html=1;fillColor=#f8cecc;strokeColor=#b85450;" vertex="1" parent="1">
          <mxGeometry x="1935" y="1258" width="203" height="60" as="geometry" />
        </mxCell>
        <mxCell id="oYIHzgySC4vWeec2pDd3-163" style="edgeStyle=orthogonalEdgeStyle;rounded=0;orthogonalLoop=1;jettySize=auto;html=1;" edge="1" parent="1" source="oYIHzgySC4vWeec2pDd3-164" target="oYIHzgySC4vWeec2pDd3-168">
          <mxGeometry relative="1" as="geometry" />
        </mxCell>
        <mxCell id="oYIHzgySC4vWeec2pDd3-164" value="&lt;font face=&quot;Consolas, Courier New, monospace&quot;&gt;&lt;span style=&quot;font-size: 14px; white-space: pre;&quot;&gt;Потеря данных&lt;/span&gt;&lt;/font&gt;&lt;div&gt;&lt;font face=&quot;Consolas, Courier New, monospace&quot;&gt;&lt;span style=&quot;font-size: 14px; white-space: pre;&quot;&gt;(незначительный)&lt;/span&gt;&lt;/font&gt;&lt;/div&gt;" style="rounded=1;whiteSpace=wrap;html=1;fillColor=#f8cecc;strokeColor=#b85450;" vertex="1" parent="1">
          <mxGeometry x="2172" y="1258" width="203" height="60" as="geometry" />
        </mxCell>
        <mxCell id="oYIHzgySC4vWeec2pDd3-165" style="edgeStyle=orthogonalEdgeStyle;rounded=0;orthogonalLoop=1;jettySize=auto;html=1;" edge="1" parent="1" source="oYIHzgySC4vWeec2pDd3-166" target="oYIHzgySC4vWeec2pDd3-169">
          <mxGeometry relative="1" as="geometry" />
        </mxCell>
        <mxCell id="oYIHzgySC4vWeec2pDd3-166" value="&lt;font face=&quot;Consolas, Courier New, monospace&quot;&gt;&lt;span style=&quot;font-size: 14px; white-space: pre;&quot;&gt;Искажение данных&lt;/span&gt;&lt;/font&gt;&lt;div&gt;&lt;font face=&quot;Consolas, Courier New, monospace&quot;&gt;&lt;span style=&quot;font-size: 14px; white-space: pre;&quot;&gt;(значительный)&lt;/span&gt;&lt;/font&gt;&lt;/div&gt;" style="rounded=1;whiteSpace=wrap;html=1;fillColor=#f8cecc;strokeColor=#b85450;" vertex="1" parent="1">
          <mxGeometry x="2409" y="1258" width="203" height="60" as="geometry" />
        </mxCell>
        <mxCell id="oYIHzgySC4vWeec2pDd3-167" value="&lt;span style=&quot;font-family: Consolas, &amp;quot;Courier New&amp;quot;, monospace; font-size: 14px; white-space: pre;&quot;&gt;Может привести к &lt;/span&gt;&lt;span style=&quot;color: light-dark(rgb(0, 0, 0), rgb(255, 255, 255)); background-color: transparent; font-family: Consolas, &amp;quot;Courier New&amp;quot;, monospace; font-size: 14px; white-space: pre;&quot;&gt;потери &lt;/span&gt;&lt;div&gt;&lt;span style=&quot;font-family: Consolas, &amp;quot;Courier New&amp;quot;, monospace; font-size: 14px; white-space: pre;&quot;&gt;лояльности клиентов&lt;/span&gt;&lt;/div&gt;" style="rounded=1;html=1;fillColor=#fff2cc;strokeColor=#d6b656;whiteSpace=wrap;" vertex="1" parent="1">
          <mxGeometry x="1926" y="1363" width="221" height="112" as="geometry" />
        </mxCell>
        <mxCell id="oYIHzgySC4vWeec2pDd3-168" value="&lt;span style=&quot;font-family: Consolas, &amp;quot;Courier New&amp;quot;, monospace; font-size: 14px; white-space: pre;&quot;&gt;Может привести к &lt;/span&gt;&lt;span style=&quot;color: light-dark(rgb(0, 0, 0), rgb(255, 255, 255)); background-color: transparent; font-family: Consolas, &amp;quot;Courier New&amp;quot;, monospace; font-size: 14px; white-space: pre;&quot;&gt;потери &lt;/span&gt;&lt;div&gt;&lt;span style=&quot;font-family: Consolas, &amp;quot;Courier New&amp;quot;, monospace; font-size: 14px; white-space: pre;&quot;&gt;лояльности клиентов&lt;/span&gt;&lt;/div&gt;" style="rounded=1;html=1;fillColor=#fff2cc;strokeColor=#d6b656;whiteSpace=wrap;" vertex="1" parent="1">
          <mxGeometry x="2172" y="1363" width="203" height="112" as="geometry" />
        </mxCell>
        <mxCell id="oYIHzgySC4vWeec2pDd3-169" value="&lt;span style=&quot;font-family: Consolas, &amp;quot;Courier New&amp;quot;, monospace; font-size: 14px; white-space: pre;&quot;&gt;Может привести &lt;/span&gt;&lt;div&gt;&lt;span style=&quot;font-family: Consolas, &amp;quot;Courier New&amp;quot;, monospace; font-size: 14px; white-space: pre;&quot;&gt;к судебным искам, &lt;/span&gt;&lt;/div&gt;&lt;div&gt;&lt;span style=&quot;font-family: Consolas, &amp;quot;Courier New&amp;quot;, monospace; font-size: 14px; white-space: pre;&quot;&gt;штрафам и потери лояльности&lt;/span&gt;&lt;/div&gt;&lt;div&gt;&lt;span style=&quot;font-family: Consolas, &amp;quot;Courier New&amp;quot;, monospace; font-size: 14px; white-space: pre;&quot;&gt;клиентов&lt;/span&gt;&lt;/div&gt;" style="rounded=1;html=1;fillColor=#fff2cc;strokeColor=#d6b656;whiteSpace=wrap;" vertex="1" parent="1">
          <mxGeometry x="2396.5" y="1365" width="228" height="112" as="geometry" />
        </mxCell>
        <mxCell id="oYIHzgySC4vWeec2pDd3-170" style="edgeStyle=orthogonalEdgeStyle;rounded=0;orthogonalLoop=1;jettySize=auto;html=1;" edge="1" parent="1" source="oYIHzgySC4vWeec2pDd3-171" target="oYIHzgySC4vWeec2pDd3-174">
          <mxGeometry relative="1" as="geometry" />
        </mxCell>
        <mxCell id="oYIHzgySC4vWeec2pDd3-171" value="&lt;font face=&quot;Consolas, Courier New, monospace&quot;&gt;&lt;span style=&quot;font-size: 14px; white-space: pre;&quot;&gt;Утечка данных&lt;/span&gt;&lt;/font&gt;&lt;div&gt;&lt;font face=&quot;Consolas, Courier New, monospace&quot;&gt;&lt;span style=&quot;font-size: 14px; white-space: pre;&quot;&gt;(критический)&lt;/span&gt;&lt;/font&gt;&lt;/div&gt;" style="rounded=1;whiteSpace=wrap;html=1;fillColor=#f8cecc;strokeColor=#b85450;" vertex="1" parent="1">
          <mxGeometry x="2665" y="1258" width="203" height="60" as="geometry" />
        </mxCell>
        <mxCell id="oYIHzgySC4vWeec2pDd3-172" style="edgeStyle=orthogonalEdgeStyle;rounded=0;orthogonalLoop=1;jettySize=auto;html=1;" edge="1" parent="1" source="oYIHzgySC4vWeec2pDd3-173" target="oYIHzgySC4vWeec2pDd3-175">
          <mxGeometry relative="1" as="geometry" />
        </mxCell>
        <mxCell id="oYIHzgySC4vWeec2pDd3-173" value="&lt;font face=&quot;Consolas, Courier New, monospace&quot;&gt;&lt;span style=&quot;font-size: 14px; white-space: pre;&quot;&gt;Потеря данных&lt;/span&gt;&lt;/font&gt;&lt;div&gt;&lt;font face=&quot;Consolas, Courier New, monospace&quot;&gt;&lt;span style=&quot;font-size: 14px; white-space: pre;&quot;&gt;(незначительный)&lt;/span&gt;&lt;/font&gt;&lt;/div&gt;" style="rounded=1;whiteSpace=wrap;html=1;fillColor=#f8cecc;strokeColor=#b85450;" vertex="1" parent="1">
          <mxGeometry x="2910" y="1258" width="203" height="60" as="geometry" />
        </mxCell>
        <mxCell id="oYIHzgySC4vWeec2pDd3-174" value="&lt;span style=&quot;font-family: Consolas, &amp;quot;Courier New&amp;quot;, monospace; font-size: 14px; white-space: pre;&quot;&gt;Может привести &lt;/span&gt;&lt;div&gt;&lt;span style=&quot;font-family: Consolas, &amp;quot;Courier New&amp;quot;, monospace; font-size: 14px; white-space: pre;&quot;&gt;к мошенничеству и утрате &lt;/span&gt;&lt;/div&gt;&lt;div&gt;&lt;span style=&quot;font-family: Consolas, &amp;quot;Courier New&amp;quot;, monospace; font-size: 14px; white-space: pre;&quot;&gt;доверия клиентов&lt;/span&gt;&lt;/div&gt;" style="rounded=1;html=1;fillColor=#fff2cc;strokeColor=#d6b656;whiteSpace=wrap;" vertex="1" parent="1">
          <mxGeometry x="2656" y="1363" width="221" height="112" as="geometry" />
        </mxCell>
        <mxCell id="oYIHzgySC4vWeec2pDd3-175" value="&lt;span style=&quot;font-family: Consolas, &amp;quot;Courier New&amp;quot;, monospace; font-size: 14px; white-space: pre;&quot;&gt;Может привести к &lt;/span&gt;&lt;span style=&quot;font-family: Consolas, &amp;quot;Courier New&amp;quot;, monospace; font-size: 14px; white-space: pre; background-color: transparent; color: light-dark(rgb(0, 0, 0), rgb(255, 255, 255));&quot;&gt;потери &lt;/span&gt;&lt;div&gt;&lt;span style=&quot;font-family: Consolas, &amp;quot;Courier New&amp;quot;, monospace; font-size: 14px; white-space: pre;&quot;&gt;лояльности клиентов&lt;/span&gt;&lt;/div&gt;" style="rounded=1;html=1;fillColor=#fff2cc;strokeColor=#d6b656;whiteSpace=wrap;" vertex="1" parent="1">
          <mxGeometry x="2910" y="1363" width="203" height="112" as="geometry" />
        </mxCell>
        <mxCell id="oYIHzgySC4vWeec2pDd3-208" style="edgeStyle=orthogonalEdgeStyle;rounded=0;orthogonalLoop=1;jettySize=auto;html=1;curved=1;exitX=0.25;exitY=1;exitDx=0;exitDy=0;" edge="1" parent="1" source="oYIHzgySC4vWeec2pDd3-211" target="oYIHzgySC4vWeec2pDd3-214">
          <mxGeometry relative="1" as="geometry" />
        </mxCell>
        <mxCell id="oYIHzgySC4vWeec2pDd3-209" style="edgeStyle=orthogonalEdgeStyle;rounded=0;orthogonalLoop=1;jettySize=auto;html=1;curved=1;" edge="1" parent="1" source="oYIHzgySC4vWeec2pDd3-211" target="oYIHzgySC4vWeec2pDd3-217">
          <mxGeometry relative="1" as="geometry" />
        </mxCell>
        <mxCell id="oYIHzgySC4vWeec2pDd3-210" style="edgeStyle=orthogonalEdgeStyle;rounded=0;orthogonalLoop=1;jettySize=auto;html=1;curved=1;exitX=0.75;exitY=1;exitDx=0;exitDy=0;" edge="1" parent="1" source="oYIHzgySC4vWeec2pDd3-211" target="oYIHzgySC4vWeec2pDd3-219">
          <mxGeometry relative="1" as="geometry" />
        </mxCell>
        <mxCell id="oYIHzgySC4vWeec2pDd3-211" value="&lt;span style=&quot;font-family: &amp;quot;YS Text&amp;quot;, sans-serif; font-size: 18px; text-align: start; white-space-collapse: preserve;&quot;&gt;&lt;font style=&quot;color: rgb(0, 0, 0);&quot;&gt;Публичные данные&lt;/font&gt;&lt;/span&gt;" style="rounded=1;whiteSpace=wrap;html=1;fillColor=#d5e8d4;strokeColor=#82b366;" vertex="1" parent="1">
          <mxGeometry x="1440" y="381" width="203" height="60" as="geometry" />
        </mxCell>
        <mxCell id="oYIHzgySC4vWeec2pDd3-212" style="edgeStyle=orthogonalEdgeStyle;rounded=0;orthogonalLoop=1;jettySize=auto;html=1;curved=1;" edge="1" parent="1" source="oYIHzgySC4vWeec2pDd3-214" target="oYIHzgySC4vWeec2pDd3-221">
          <mxGeometry relative="1" as="geometry">
            <Array as="points">
              <mxPoint x="1015" y="616" />
              <mxPoint x="937" y="616" />
            </Array>
          </mxGeometry>
        </mxCell>
        <mxCell id="oYIHzgySC4vWeec2pDd3-213" style="edgeStyle=orthogonalEdgeStyle;rounded=0;orthogonalLoop=1;jettySize=auto;html=1;curved=1;exitX=0.75;exitY=1;exitDx=0;exitDy=0;" edge="1" parent="1" source="oYIHzgySC4vWeec2pDd3-214" target="oYIHzgySC4vWeec2pDd3-223">
          <mxGeometry relative="1" as="geometry">
            <Array as="points">
              <mxPoint x="1134" y="616" />
              <mxPoint x="1185" y="616" />
            </Array>
          </mxGeometry>
        </mxCell>
        <mxCell id="oYIHzgySC4vWeec2pDd3-214" value="&lt;div style=&quot;color: rgb(0, 0, 0); font-family: Consolas, &amp;quot;Courier New&amp;quot;, monospace; font-size: 14px; white-space: pre;&quot;&gt;&lt;font style=&quot;color: rgb(0, 0, 0);&quot;&gt;Учетные записи клиентов &lt;/font&gt;&lt;span style=&quot;background-color: transparent;&quot;&gt;и сотрудников &lt;/span&gt;&lt;/div&gt;&lt;div style=&quot;color: rgb(0, 0, 0); font-family: Consolas, &amp;quot;Courier New&amp;quot;, monospace; font-size: 14px; white-space: pre;&quot;&gt;&lt;span style=&quot;background-color: transparent;&quot;&gt;компании &lt;/span&gt;&lt;font style=&quot;background-color: transparent; color: rgb(0, 0, 0);&quot;&gt;(логины\пароли, &lt;/font&gt;&lt;/div&gt;&lt;div style=&quot;color: rgb(0, 0, 0); font-family: Consolas, &amp;quot;Courier New&amp;quot;, monospace; font-size: 14px; white-space: pre;&quot;&gt;&lt;font style=&quot;background-color: transparent; color: rgb(0, 0, 0);&quot;&gt;данные &lt;/font&gt;&lt;span style=&quot;background-color: transparent;&quot;&gt;банковских карт)&lt;/span&gt;&lt;/div&gt;" style="rounded=1;whiteSpace=wrap;html=1;fillColor=#f5f5f5;strokeColor=#666666;fontColor=#333333;" vertex="1" parent="1">
          <mxGeometry x="916" y="522" width="291" height="60" as="geometry" />
        </mxCell>
        <mxCell id="oYIHzgySC4vWeec2pDd3-215" style="edgeStyle=orthogonalEdgeStyle;rounded=0;orthogonalLoop=1;jettySize=auto;html=1;curved=1;exitX=0.25;exitY=1;exitDx=0;exitDy=0;" edge="1" parent="1" source="oYIHzgySC4vWeec2pDd3-217" target="oYIHzgySC4vWeec2pDd3-227">
          <mxGeometry relative="1" as="geometry" />
        </mxCell>
        <mxCell id="oYIHzgySC4vWeec2pDd3-216" style="edgeStyle=orthogonalEdgeStyle;rounded=0;orthogonalLoop=1;jettySize=auto;html=1;curved=1;exitX=0.75;exitY=1;exitDx=0;exitDy=0;" edge="1" parent="1" source="oYIHzgySC4vWeec2pDd3-217" target="oYIHzgySC4vWeec2pDd3-229">
          <mxGeometry relative="1" as="geometry" />
        </mxCell>
        <mxCell id="oYIHzgySC4vWeec2pDd3-217" value="&lt;div style=&quot;color: rgb(0, 0, 0); font-family: Consolas, &amp;quot;Courier New&amp;quot;, monospace; font-size: 14px; white-space: pre;&quot;&gt;&lt;span style=&quot;color: rgb(0, 0, 0);&quot;&gt;Ключевые данные бизнес-процессов &lt;/span&gt;&lt;div style=&quot;color: rgb(51, 51, 51); font-family: Helvetica; font-size: 12px; white-space: normal;&quot;&gt;&lt;span style=&quot;color: rgb(0, 0, 0); font-family: Consolas, &amp;quot;Courier New&amp;quot;, monospace; font-size: 14px; white-space: pre;&quot;&gt;(стратегии, планы развития, &lt;/span&gt;&lt;/div&gt;&lt;div style=&quot;color: rgb(51, 51, 51); font-family: Helvetica; font-size: 12px; white-space: normal;&quot;&gt;&lt;span style=&quot;color: rgb(0, 0, 0); font-family: Consolas, &amp;quot;Courier New&amp;quot;, monospace; font-size: 14px; white-space: pre;&quot;&gt;коммерческая тайна)&lt;/span&gt;&lt;/div&gt;&lt;/div&gt;" style="rounded=1;whiteSpace=wrap;html=1;fillColor=#f5f5f5;strokeColor=#666666;fontColor=#333333;" vertex="1" parent="1">
          <mxGeometry x="1398" y="522" width="286" height="60" as="geometry" />
        </mxCell>
        <mxCell id="oYIHzgySC4vWeec2pDd3-218" style="edgeStyle=orthogonalEdgeStyle;rounded=0;orthogonalLoop=1;jettySize=auto;html=1;entryX=0.5;entryY=0;entryDx=0;entryDy=0;" edge="1" parent="1" source="oYIHzgySC4vWeec2pDd3-219" target="oYIHzgySC4vWeec2pDd3-233">
          <mxGeometry relative="1" as="geometry" />
        </mxCell>
        <mxCell id="oYIHzgySC4vWeec2pDd3-219" value="&lt;div style=&quot;color: rgb(0, 0, 0); font-family: Consolas, &amp;quot;Courier New&amp;quot;, monospace; font-size: 14px; white-space: pre;&quot;&gt;&lt;font style=&quot;color: rgb(0, 0, 0);&quot;&gt;&amp;nbsp;Учетные данные доступа &lt;/font&gt;&lt;/div&gt;&lt;div style=&quot;color: rgb(0, 0, 0); font-family: Consolas, &amp;quot;Courier New&amp;quot;, monospace; font-size: 14px; white-space: pre;&quot;&gt;&lt;font style=&quot;color: rgb(0, 0, 0);&quot;&gt;к API сторонних систем&lt;/font&gt;&lt;/div&gt;" style="rounded=1;whiteSpace=wrap;html=1;fillColor=#f5f5f5;strokeColor=#666666;fontColor=#333333;" vertex="1" parent="1">
          <mxGeometry x="1864" y="522" width="280" height="60" as="geometry" />
        </mxCell>
        <mxCell id="oYIHzgySC4vWeec2pDd3-220" style="edgeStyle=orthogonalEdgeStyle;rounded=0;orthogonalLoop=1;jettySize=auto;html=1;" edge="1" parent="1" source="oYIHzgySC4vWeec2pDd3-221" target="oYIHzgySC4vWeec2pDd3-224">
          <mxGeometry relative="1" as="geometry" />
        </mxCell>
        <mxCell id="oYIHzgySC4vWeec2pDd3-221" value="&lt;font face=&quot;Consolas, Courier New, monospace&quot;&gt;&lt;span style=&quot;font-size: 14px; white-space: pre;&quot;&gt;Утечка данных&lt;/span&gt;&lt;/font&gt;&lt;div&gt;&lt;font face=&quot;Consolas, Courier New, monospace&quot;&gt;&lt;span style=&quot;font-size: 14px; white-space: pre;&quot;&gt;(критический)&lt;/span&gt;&lt;/font&gt;&lt;/div&gt;" style="rounded=1;whiteSpace=wrap;html=1;fillColor=#f8cecc;strokeColor=#b85450;" vertex="1" parent="1">
          <mxGeometry x="836" y="649" width="203" height="60" as="geometry" />
        </mxCell>
        <mxCell id="oYIHzgySC4vWeec2pDd3-222" style="edgeStyle=orthogonalEdgeStyle;rounded=0;orthogonalLoop=1;jettySize=auto;html=1;" edge="1" parent="1" source="oYIHzgySC4vWeec2pDd3-223" target="oYIHzgySC4vWeec2pDd3-225">
          <mxGeometry relative="1" as="geometry" />
        </mxCell>
        <mxCell id="oYIHzgySC4vWeec2pDd3-223" value="&lt;font face=&quot;Consolas, Courier New, monospace&quot;&gt;&lt;span style=&quot;font-size: 14px; white-space: pre;&quot;&gt;Потеря данных &lt;/span&gt;&lt;/font&gt;&lt;div&gt;&lt;font face=&quot;Consolas, Courier New, monospace&quot;&gt;&lt;span style=&quot;font-size: 14px; white-space: pre;&quot;&gt;(критический)&lt;/span&gt;&lt;/font&gt;&lt;/div&gt;" style="rounded=1;whiteSpace=wrap;html=1;fillColor=#f8cecc;strokeColor=#b85450;" vertex="1" parent="1">
          <mxGeometry x="1083" y="649" width="203" height="60" as="geometry" />
        </mxCell>
        <mxCell id="oYIHzgySC4vWeec2pDd3-224" value="&lt;span style=&quot;font-family: Consolas, &amp;quot;Courier New&amp;quot;, monospace; font-size: 14px; white-space: pre;&quot;&gt;Может привести к &lt;/span&gt;&lt;div&gt;&lt;span style=&quot;font-family: Consolas, &amp;quot;Courier New&amp;quot;, monospace; font-size: 14px; white-space: pre;&quot;&gt;значительным финансовым &lt;/span&gt;&lt;/div&gt;&lt;div&gt;&lt;span style=&quot;font-family: Consolas, &amp;quot;Courier New&amp;quot;, monospace; font-size: 14px; white-space: pre;&quot;&gt;потерям, судебным издержкам, &lt;/span&gt;&lt;/div&gt;&lt;div&gt;&lt;span style=&quot;font-family: Consolas, &amp;quot;Courier New&amp;quot;, monospace; font-size: 14px; white-space: pre;&quot;&gt;штрафам&lt;/span&gt;&lt;/div&gt;" style="rounded=1;html=1;fillColor=#fff2cc;strokeColor=#d6b656;whiteSpace=wrap;" vertex="1" parent="1">
          <mxGeometry x="827" y="770" width="221" height="112" as="geometry" />
        </mxCell>
        <mxCell id="oYIHzgySC4vWeec2pDd3-225" value="&lt;font face=&quot;Consolas, Courier New, monospace&quot;&gt;&lt;span style=&quot;font-size: 14px; white-space: pre;&quot;&gt;Может привести к &lt;/span&gt;&lt;/font&gt;&lt;div&gt;&lt;font face=&quot;Consolas, Courier New, monospace&quot;&gt;&lt;span style=&quot;font-size: 14px; white-space: pre;&quot;&gt;финансовым потерям компании&lt;/span&gt;&lt;/font&gt;&lt;/div&gt;&lt;div&gt;&lt;font face=&quot;Consolas, Courier New, monospace&quot;&gt;&lt;span style=&quot;font-size: 14px; white-space: pre;&quot;&gt;из-за невозможности &lt;/span&gt;&lt;/font&gt;&lt;/div&gt;&lt;div&gt;&lt;font face=&quot;Consolas, Courier New, monospace&quot;&gt;&lt;span style=&quot;font-size: 14px; white-space: pre;&quot;&gt;совершать сделки&lt;/span&gt;&lt;/font&gt;&lt;/div&gt;" style="rounded=1;html=1;fillColor=#fff2cc;strokeColor=#d6b656;whiteSpace=wrap;" vertex="1" parent="1">
          <mxGeometry x="1083" y="770" width="203" height="112" as="geometry" />
        </mxCell>
        <mxCell id="oYIHzgySC4vWeec2pDd3-226" style="edgeStyle=orthogonalEdgeStyle;rounded=0;orthogonalLoop=1;jettySize=auto;html=1;" edge="1" parent="1" source="oYIHzgySC4vWeec2pDd3-227" target="oYIHzgySC4vWeec2pDd3-230">
          <mxGeometry relative="1" as="geometry" />
        </mxCell>
        <mxCell id="oYIHzgySC4vWeec2pDd3-227" value="&lt;font face=&quot;Consolas, Courier New, monospace&quot;&gt;&lt;span style=&quot;font-size: 14px; white-space: pre;&quot;&gt;Утечка данных&lt;/span&gt;&lt;/font&gt;&lt;div&gt;&lt;font face=&quot;Consolas, Courier New, monospace&quot;&gt;&lt;span style=&quot;font-size: 14px; white-space: pre;&quot;&gt;(&lt;/span&gt;&lt;/font&gt;&lt;span style=&quot;font-family: Consolas, &amp;quot;Courier New&amp;quot;, monospace; font-size: 14px; white-space: pre;&quot;&gt;критический&lt;/span&gt;&lt;font face=&quot;Consolas, Courier New, monospace&quot;&gt;&lt;span style=&quot;font-size: 14px; white-space: pre;&quot;&gt;)&lt;/span&gt;&lt;/font&gt;&lt;/div&gt;" style="rounded=1;whiteSpace=wrap;html=1;fillColor=#f8cecc;strokeColor=#b85450;" vertex="1" parent="1">
          <mxGeometry x="1316.5" y="652" width="203" height="60" as="geometry" />
        </mxCell>
        <mxCell id="oYIHzgySC4vWeec2pDd3-228" style="edgeStyle=orthogonalEdgeStyle;rounded=0;orthogonalLoop=1;jettySize=auto;html=1;" edge="1" parent="1" source="oYIHzgySC4vWeec2pDd3-229" target="oYIHzgySC4vWeec2pDd3-231">
          <mxGeometry relative="1" as="geometry" />
        </mxCell>
        <mxCell id="oYIHzgySC4vWeec2pDd3-229" value="&lt;font face=&quot;Consolas, Courier New, monospace&quot;&gt;&lt;span style=&quot;font-size: 14px; white-space: pre;&quot;&gt;Потеря данных &lt;/span&gt;&lt;/font&gt;&lt;div&gt;&lt;font face=&quot;Consolas, Courier New, monospace&quot;&gt;&lt;span style=&quot;font-size: 14px; white-space: pre;&quot;&gt;(критический)&lt;/span&gt;&lt;/font&gt;&lt;/div&gt;" style="rounded=1;whiteSpace=wrap;html=1;fillColor=#f8cecc;strokeColor=#b85450;" vertex="1" parent="1">
          <mxGeometry x="1563.5" y="652" width="203" height="60" as="geometry" />
        </mxCell>
        <mxCell id="oYIHzgySC4vWeec2pDd3-230" value="&lt;span style=&quot;font-family: Consolas, &amp;quot;Courier New&amp;quot;, monospace; font-size: 14px; white-space: pre;&quot;&gt;Может привести к &lt;/span&gt;&lt;div&gt;&lt;span style=&quot;font-family: Consolas, &amp;quot;Courier New&amp;quot;, monospace; font-size: 14px; white-space: pre;&quot;&gt;значительным финансовым &lt;/span&gt;&lt;/div&gt;&lt;div&gt;&lt;span style=&quot;font-family: Consolas, &amp;quot;Courier New&amp;quot;, monospace; font-size: 14px; white-space: pre;&quot;&gt;потерям&lt;/span&gt;&lt;/div&gt;" style="rounded=1;html=1;fillColor=#fff2cc;strokeColor=#d6b656;whiteSpace=wrap;" vertex="1" parent="1">
          <mxGeometry x="1316.5" y="773" width="203" height="112" as="geometry" />
        </mxCell>
        <mxCell id="oYIHzgySC4vWeec2pDd3-231" value="&lt;span style=&quot;font-family: Consolas, &amp;quot;Courier New&amp;quot;, monospace; font-size: 14px; white-space: pre;&quot;&gt;Может привести к &lt;/span&gt;&lt;div&gt;&lt;span style=&quot;font-family: Consolas, &amp;quot;Courier New&amp;quot;, monospace; font-size: 14px; white-space: pre;&quot;&gt;критически сбоям &lt;/span&gt;&lt;/div&gt;&lt;div&gt;&lt;span style=&quot;font-family: Consolas, &amp;quot;Courier New&amp;quot;, monospace; font-size: 14px; white-space: pre;&quot;&gt;в работе системы&lt;/span&gt;&lt;/div&gt;" style="rounded=1;html=1;fillColor=#fff2cc;strokeColor=#d6b656;whiteSpace=wrap;" vertex="1" parent="1">
          <mxGeometry x="1563.5" y="773" width="203" height="112" as="geometry" />
        </mxCell>
        <mxCell id="oYIHzgySC4vWeec2pDd3-232" style="edgeStyle=orthogonalEdgeStyle;rounded=0;orthogonalLoop=1;jettySize=auto;html=1;" edge="1" parent="1" source="oYIHzgySC4vWeec2pDd3-233" target="oYIHzgySC4vWeec2pDd3-234">
          <mxGeometry relative="1" as="geometry" />
        </mxCell>
        <mxCell id="oYIHzgySC4vWeec2pDd3-233" value="&lt;font face=&quot;Consolas, Courier New, monospace&quot;&gt;&lt;span style=&quot;font-size: 14px; white-space: pre;&quot;&gt;Утечка данных &lt;/span&gt;&lt;/font&gt;&lt;div&gt;&lt;font face=&quot;Consolas, Courier New, monospace&quot;&gt;&lt;span style=&quot;font-size: 14px; white-space: pre;&quot;&gt;(&lt;/span&gt;&lt;/font&gt;&lt;span style=&quot;font-family: Consolas, &amp;quot;Courier New&amp;quot;, monospace; font-size: 14px; white-space: pre;&quot;&gt;критический&lt;/span&gt;&lt;font face=&quot;Consolas, Courier New, monospace&quot;&gt;&lt;span style=&quot;font-size: 14px; white-space: pre;&quot;&gt;)&lt;/span&gt;&lt;/font&gt;&lt;/div&gt;" style="rounded=1;whiteSpace=wrap;html=1;fillColor=#f8cecc;strokeColor=#b85450;" vertex="1" parent="1">
          <mxGeometry x="1902.5" y="649" width="203" height="60" as="geometry" />
        </mxCell>
        <mxCell id="oYIHzgySC4vWeec2pDd3-234" value="&lt;span style=&quot;font-family: Consolas, &amp;quot;Courier New&amp;quot;, monospace; font-size: 14px; white-space: pre;&quot;&gt;Может привести к &lt;/span&gt;&lt;div&gt;&lt;span style=&quot;font-family: Consolas, &amp;quot;Courier New&amp;quot;, monospace; font-size: 14px; white-space: pre;&quot;&gt;финансовым потерям &lt;/span&gt;&lt;/div&gt;&lt;div&gt;&lt;span style=&quot;font-family: Consolas, &amp;quot;Courier New&amp;quot;, monospace; font-size: 14px; white-space: pre;&quot;&gt;и отказу сторонних систем &lt;/span&gt;&lt;/div&gt;&lt;div&gt;&lt;span style=&quot;font-family: Consolas, &amp;quot;Courier New&amp;quot;, monospace; font-size: 14px; white-space: pre;&quot;&gt;работать с компанией&lt;/span&gt;&lt;/div&gt;" style="rounded=1;html=1;fillColor=#fff2cc;strokeColor=#d6b656;whiteSpace=wrap;" vertex="1" parent="1">
          <mxGeometry x="1903.5" y="770" width="203" height="112" as="geometry" />
        </mxCell>
        <mxCell id="oYIHzgySC4vWeec2pDd3-235" value="" style="swimlane;startSize=0;" vertex="1" parent="1">
          <mxGeometry x="-1771" y="934" width="2252" height="577" as="geometry" />
        </mxCell>
        <mxCell id="oYIHzgySC4vWeec2pDd3-236" value="" style="swimlane;startSize=0;" vertex="1" parent="1">
          <mxGeometry x="-1173" y="354" width="1372" height="546" as="geometry" />
        </mxCell>
        <mxCell id="oYIHzgySC4vWeec2pDd3-237" value="" style="swimlane;startSize=0;" vertex="1" parent="1">
          <mxGeometry x="497" y="934" width="2645" height="577" as="geometry" />
        </mxCell>
        <mxCell id="oYIHzgySC4vWeec2pDd3-238" value="" style="swimlane;startSize=0;" vertex="1" parent="1">
          <mxGeometry x="823" y="359" width="1372" height="538" as="geometry" />
        </mxCell>
      </root>
    </mxGraphModel>
  </diagram>
</mxfile>
